<svg width="1816" height="1817" xmlns="http://www.w3.org/2000/svg" xmlns:xlink="http://www.w3.org/1999/xlink" xml:space="preserve" overflow="hidden"><defs><clipPath id="clip0"><rect x="1292" y="329" width="1816" height="1817"/></clipPath><clipPath id="clip1"><rect x="1870" y="907" width="660" height="661"/></clipPath><clipPath id="clip2"><rect x="1870" y="907" width="660" height="661"/></clipPath><clipPath id="clip3"><rect x="1870" y="907" width="660" height="661"/></clipPath></defs><g clip-path="url(#clip0)" transform="translate(-1292 -329)"><rect x="1292" y="329" width="1816" height="1817" fill="#A5A5A5"/><g clip-path="url(#clip1)"><g clip-path="url(#clip2)"><g clip-path="url(#clip3)"><path d="M617.813 494.25C617.813 516.998 599.373 535.438 576.625 535.438L82.375 535.438C59.628 535.438 41.1875 516.998 41.1875 494.25L41.1875 247.125C41.1875 224.378 59.628 205.938 82.375 205.938L130.647 205.938C163.401 205.92 194.807 192.898 217.964 169.734L252.15 135.63C259.852 127.926 270.293 123.587 281.187 123.563L377.731 123.563C388.653 123.565 399.128 127.906 406.85 135.63L440.954 169.734C464.13 192.918 495.572 205.942 528.354 205.938L576.625 205.938C599.373 205.938 617.813 224.378 617.813 247.125L617.813 494.25ZM82.375 164.75C36.8806 164.75-1.82909e-14 201.631 0 247.125L0 494.25C0 539.746 36.8806 576.625 82.375 576.625L576.625 576.625C622.121 576.625 659 539.746 659 494.25L659 247.125C659 201.631 622.121 164.75 576.625 164.75L528.354 164.75C506.508 164.746 485.56 156.064 470.114 140.614L436.011 106.511C420.566 91.0615 399.617 82.3796 377.772 82.375L281.228 82.375C259.383 82.3796 238.434 91.0615 222.989 106.511L188.886 140.614C173.441 156.064 152.492 164.746 130.647 164.75L82.375 164.75Z" fill="#FFFFFF" transform="matrix(1.00152 0 0 1 1870 908)"/><path d="M329.5 453.063C272.632 453.063 226.531 406.962 226.531 350.094 226.531 293.226 272.632 247.125 329.5 247.125 386.368 247.125 432.469 293.226 432.469 350.094 432.469 406.962 386.368 453.063 329.5 453.063ZM329.5 494.25C409.116 494.25 473.656 429.709 473.656 350.094 473.656 270.478 409.116 205.938 329.5 205.938 249.885 205.938 185.344 270.478 185.344 350.094 185.344 429.709 249.885 494.25 329.5 494.25ZM123.563 267.719C123.563 279.092 114.342 288.313 102.969 288.313 91.5953 288.313 82.375 279.092 82.375 267.719 82.375 256.345 91.5953 247.125 102.969 247.125 114.342 247.125 123.563 256.345 123.563 267.719Z" fill="#FFFFFF" transform="matrix(1.00152 0 0 1 1870 908)"/></g></g></g><path d="M0 0 659.903 659.903" stroke="#FFFFFF" stroke-width="45.8333" stroke-linecap="round" stroke-miterlimit="8" fill="none" fill-rule="evenodd" transform="matrix(-1 0 0 1 2529.9 908)"/></g></svg>