<svg width="1816" height="1817" xmlns="http://www.w3.org/2000/svg" xmlns:xlink="http://www.w3.org/1999/xlink" xml:space="preserve" overflow="hidden"><defs><clipPath id="clip0"><rect x="1292" y="329" width="1816" height="1817"/></clipPath></defs><g clip-path="url(#clip0)" transform="translate(-1292 -329)"><rect x="1292" y="329" width="1816" height="1817" fill="#2F5597"/><g><g><g><path d="M1911.25 791.655C1947.76 776.393 2000.1 759.934 2051 754.819 2105.87 749.291 2152.4 757.418 2179.38 785.839L2179.38 1187.86C2140.81 1166 2091.93 1162.99 2046.84 1167.53 1998.16 1172.48 1949.08 1186.54 1911.25 1200.98L1911.25 791.655ZM2220.62 785.839C2247.6 757.418 2294.13 749.291 2349 754.819 2399.9 759.934 2452.24 776.393 2488.75 791.655L2488.75 1200.98C2450.88 1186.54 2401.84 1172.43 2353.16 1167.57 2308.03 1162.99 2259.19 1165.96 2220.62 1187.86L2220.62 785.839ZM2200 748.549C2159.37 713.61 2100.46 708.413 2046.84 713.775 1984.39 720.086 1921.36 741.495 1882.09 759.356 1874.73 762.703 1870 770.041 1870 778.125L1870 1231.88C1870 1243.26 1879.24 1252.5 1890.63 1252.5 1893.57 1252.49 1896.48 1251.86 1899.16 1250.64 1935.55 1234.14 1994.16 1214.3 2050.96 1208.57 2109.08 1202.71 2157.8 1212.16 2183.91 1244.75 2191.04 1253.63 2204.02 1255.05 2212.91 1247.93 2214.08 1246.98 2215.15 1245.92 2216.09 1244.75 2242.2 1212.16 2290.92 1202.71 2349 1208.57 2405.84 1214.3 2464.5 1234.14 2500.84 1250.64 2511.21 1255.36 2523.43 1250.78 2528.15 1240.41 2529.37 1237.73 2530 1234.82 2530 1231.88L2530 778.125C2530 770.041 2525.27 762.703 2517.91 759.356 2478.64 741.495 2415.61 720.086 2353.16 713.775 2299.54 708.371 2240.63 713.61 2200 748.549Z" fill="#FFFFFF"/></g></g></g><text fill="#FFFFFF" font-family="Gen Shin Gothic Heavy,Gen Shin Gothic Heavy_MSFontService,sans-serif" font-weight="900" font-size="293" transform="matrix(1 0 0 1 1906.67 1702)">書籍</text></g></svg>