<svg width="1816" height="1817" xmlns="http://www.w3.org/2000/svg" xmlns:xlink="http://www.w3.org/1999/xlink" xml:space="preserve" overflow="hidden"><defs><clipPath id="clip0"><rect x="1292" y="329" width="1816" height="1817"/></clipPath></defs><g clip-path="url(#clip0)" transform="translate(-1292 -329)"><rect x="1292" y="329" width="1816" height="1817" fill="#BF9000"/><text fill="#FFFFFF" font-family="Gen Shin Gothic Heavy,Gen Shin Gothic Heavy_MSFontService,sans-serif" font-weight="900" font-size="293" transform="matrix(1 0 0 1 1613.33 1702)">電子工作</text><g><g><g><path d="M2076.25 675C2087.64 675 2096.88 684.234 2096.88 695.625L2096.88 757.5 2138.12 757.5 2138.12 695.625C2138.12 684.234 2147.36 675 2158.75 675 2170.14 675 2179.38 684.234 2179.38 695.625L2179.38 757.5 2220.62 757.5 2220.62 695.625C2220.62 684.234 2229.86 675 2241.25 675 2252.64 675 2261.88 684.234 2261.88 695.625L2261.88 757.5 2303.12 757.5 2303.12 695.625C2303.12 684.234 2312.36 675 2323.75 675 2335.14 675 2344.38 684.234 2344.38 695.625L2344.38 757.5C2401.33 757.5 2447.5 803.671 2447.5 860.625L2509.38 860.625C2520.76 860.625 2530 869.859 2530 881.25 2530 892.641 2520.76 901.875 2509.38 901.875L2447.5 901.875 2447.5 943.125 2509.38 943.125C2520.76 943.125 2530 952.359 2530 963.75 2530 975.141 2520.76 984.375 2509.38 984.375L2447.5 984.375 2447.5 1025.63 2509.38 1025.63C2520.76 1025.63 2530 1034.86 2530 1046.25 2530 1057.64 2520.76 1066.88 2509.38 1066.88L2447.5 1066.88 2447.5 1108.13 2509.38 1108.13C2520.76 1108.13 2530 1117.36 2530 1128.75 2530 1140.14 2520.76 1149.38 2509.38 1149.38L2447.5 1149.38C2447.5 1206.33 2401.33 1252.5 2344.38 1252.5L2344.38 1314.38C2344.38 1325.76 2335.14 1335 2323.75 1335 2312.36 1335 2303.12 1325.76 2303.12 1314.38L2303.12 1252.5 2261.88 1252.5 2261.88 1314.38C2261.88 1325.76 2252.64 1335 2241.25 1335 2229.86 1335 2220.62 1325.76 2220.62 1314.38L2220.62 1252.5 2179.38 1252.5 2179.38 1314.38C2179.38 1325.76 2170.14 1335 2158.75 1335 2147.36 1335 2138.12 1325.76 2138.12 1314.38L2138.12 1252.5 2096.88 1252.5 2096.88 1314.38C2096.88 1325.76 2087.64 1335 2076.25 1335 2064.86 1335 2055.62 1325.76 2055.62 1314.38L2055.62 1252.5C1998.67 1252.5 1952.5 1206.33 1952.5 1149.38L1890.62 1149.38C1879.23 1149.38 1870 1140.14 1870 1128.75 1870 1117.36 1879.23 1108.13 1890.62 1108.13L1952.5 1108.13 1952.5 1066.88 1890.62 1066.88C1879.23 1066.88 1870 1057.64 1870 1046.25 1870 1034.86 1879.23 1025.63 1890.62 1025.63L1952.5 1025.63 1952.5 984.375 1890.62 984.375C1879.23 984.375 1870 975.141 1870 963.75 1870 952.359 1879.23 943.125 1890.62 943.125L1952.5 943.125 1952.5 901.875 1890.62 901.875C1879.23 901.875 1870 892.641 1870 881.25 1870 869.859 1879.23 860.625 1890.62 860.625L1952.5 860.625C1952.5 803.671 1998.67 757.5 2055.62 757.5L2055.62 695.625C2055.62 684.234 2064.86 675 2076.25 675ZM2055.62 798.75C2021.45 798.75 1993.75 826.452 1993.75 860.625L1993.75 1149.38C1993.75 1183.55 2021.45 1211.25 2055.62 1211.25L2344.38 1211.25C2378.55 1211.25 2406.25 1183.55 2406.25 1149.38L2406.25 860.625C2406.25 826.452 2378.55 798.75 2344.38 798.75L2055.62 798.75ZM2076.25 943.125C2076.25 908.952 2103.95 881.25 2138.12 881.25L2261.88 881.25C2296.05 881.25 2323.75 908.952 2323.75 943.125L2323.75 1066.88C2323.75 1101.05 2296.05 1128.75 2261.88 1128.75L2138.12 1128.75C2103.95 1128.75 2076.25 1101.05 2076.25 1066.88L2076.25 943.125ZM2138.12 922.5C2126.73 922.5 2117.5 931.734 2117.5 943.125L2117.5 1066.88C2117.5 1078.27 2126.73 1087.5 2138.12 1087.5L2261.88 1087.5C2273.27 1087.5 2282.5 1078.27 2282.5 1066.88L2282.5 943.125C2282.5 931.734 2273.27 922.5 2261.88 922.5L2138.12 922.5Z" fill="#FFFFFF"/></g></g></g></g></svg>