<svg width="1816" height="1817" xmlns="http://www.w3.org/2000/svg" xmlns:xlink="http://www.w3.org/1999/xlink" xml:space="preserve" overflow="hidden"><defs><clipPath id="clip0"><rect x="1292" y="329" width="1816" height="1817"/></clipPath></defs><g clip-path="url(#clip0)" transform="translate(-1292 -329)"><rect x="1292" y="329" width="1816" height="1817" fill="#F2F2F2"/><text font-family="Gen Shin Gothic P Heavy,Gen Shin Gothic P Heavy_MSFontService,sans-serif" font-weight="900" font-size="293" transform="matrix(1 0 0 1 1540 1702)">映像・写真</text><g><g><g><path d="M1870 922.5C1870 876.937 1906.94 840 1952.5 840L2447.5 840C2493.06 840 2530 876.937 2530 922.5L2530 1046.25C2530 1091.81 2493.06 1128.75 2447.5 1128.75L2252.35 1128.75C2258.29 1135.43 2265.96 1142.12 2274.25 1148.34 2286.08 1157.15 2298.59 1165.02 2311.66 1171.86L2312.24 1172.1 2312.36 1172.19C2322.55 1177.29 2326.67 1189.68 2321.56 1199.87 2318.07 1206.84 2310.93 1211.25 2303.12 1211.25L2096.88 1211.25C2085.48 1211.25 2076.25 1202.01 2076.25 1190.63 2076.25 1182.82 2080.66 1175.68 2087.64 1172.19L2087.76 1172.1 2088.34 1171.82C2092.09 1169.91 2095.78 1167.87 2099.39 1165.71 2108.5 1160.43 2117.3 1154.63 2125.75 1148.34 2134 1142.16 2141.71 1135.43 2147.65 1128.75L1952.5 1128.75C1906.94 1128.75 1870 1091.81 1870 1046.25L1870 922.5ZM1952.5 881.25C1929.72 881.25 1911.25 899.719 1911.25 922.5L1911.25 1046.25C1911.25 1069.03 1929.72 1087.5 1952.5 1087.5L2447.5 1087.5C2470.28 1087.5 2488.75 1069.03 2488.75 1046.25L2488.75 922.5C2488.75 899.719 2470.28 881.25 2447.5 881.25L1952.5 881.25Z"/><path d="M2200 943.125C2177.22 943.125 2158.75 961.594 2158.75 984.375 2158.75 1007.16 2177.22 1025.63 2200 1025.63 2222.78 1025.63 2241.25 1007.16 2241.25 984.375 2241.25 961.594 2222.78 943.125 2200 943.125ZM2117.5 984.375C2117.5 938.812 2154.44 901.875 2200 901.875 2245.56 901.875 2282.5 938.812 2282.5 984.375 2282.5 1029.94 2245.56 1066.88 2200 1066.88 2154.44 1066.88 2117.5 1029.94 2117.5 984.375ZM2406.25 984.375C2406.25 995.766 2397.01 1005 2385.62 1005 2374.24 1005 2365 995.766 2365 984.375 2365 972.984 2374.24 963.75 2385.62 963.75 2397.01 963.75 2406.25 972.984 2406.25 984.375Z"/></g></g></g></g></svg>