<svg width="1816" height="1817" xmlns="http://www.w3.org/2000/svg" xmlns:xlink="http://www.w3.org/1999/xlink" xml:space="preserve" overflow="hidden"><defs><clipPath id="clip0"><rect x="1292" y="329" width="1816" height="1817"/></clipPath><clipPath id="clip1"><rect x="1870" y="675" width="660" height="661"/></clipPath><clipPath id="clip2"><rect x="1870" y="675" width="660" height="661"/></clipPath><clipPath id="clip3"><rect x="1870" y="675" width="660" height="661"/></clipPath></defs><g clip-path="url(#clip0)" transform="translate(-1292 -329)"><rect x="1292" y="329" width="1816" height="1817" fill="#548235"/><text fill="#FFFFFF" font-family="Gen Shin Gothic Heavy,Gen Shin Gothic Heavy_MSFontService,sans-serif" font-weight="900" font-size="220" transform="matrix(1 0 0 1 1502.76 1718)">3D</text><text fill="#FFFFFF" font-family="Gen Shin Gothic Heavy,Gen Shin Gothic Heavy_MSFontService,sans-serif" font-weight="900" font-size="220" transform="matrix(1 0 0 1 1797.24 1718)">プリンター</text><g clip-path="url(#clip1)"><g clip-path="url(#clip2)"><g clip-path="url(#clip3)"><path d="M1988.22 1287.56C1985.01 1305.88 2003.07 1320.19 2018.99 1312.02L2200.08 1218.96 2381.13 1312.02C2397.05 1320.19 2415.12 1305.88 2411.9 1287.6L2377.66 1092.49 2522.95 954.056C2536.56 941.104 2529.55 917.426 2511.31 914.869L2309.27 886.159 2219.18 707.67C2214.17 697.111 2201.55 692.611 2190.99 697.62 2186.58 699.711 2183.03 703.261 2180.94 707.67L2090.85 886.2 1888.81 914.91C1870.62 917.468 1863.56 941.145 1877.14 954.098L2022.46 1092.53 1988.22 1287.65ZM2190.55 1173.42 2038.51 1251.55 2067.13 1088.33C2068.5 1080.7 2065.98 1072.89 2060.41 1067.49L1940.54 953.231 2107.68 929.471C2114.71 928.41 2120.77 923.971 2123.89 917.591L2200 766.699 2276.19 917.591C2279.32 923.971 2285.38 928.41 2292.4 929.471L2459.54 953.19 2339.67 1067.45C2334.1 1072.86 2331.57 1080.68 2332.95 1088.33L2361.58 1251.55 2209.53 1173.42C2203.56 1170.35 2196.48 1170.35 2190.51 1173.42Z" fill="#FFFFFF"/></g></g></g></g></svg>