<svg width="1816" height="1817" xmlns="http://www.w3.org/2000/svg" xmlns:xlink="http://www.w3.org/1999/xlink" xml:space="preserve" overflow="hidden"><defs><clipPath id="clip0"><rect x="1292" y="329" width="1816" height="1817"/></clipPath></defs><g clip-path="url(#clip0)" transform="translate(-1292 -329)"><rect x="1292" y="329" width="1816" height="1817" fill="#0D0D0D"/><text fill="#FFFFFF" font-family="Gen Shin Gothic Heavy,Gen Shin Gothic Heavy_MSFontService,sans-serif" font-weight="900" font-size="220" transform="matrix(1 0 0 1 1760 1618)">ケーブル</text><text fill="#FFFFFF" font-family="Gen Shin Gothic Heavy,Gen Shin Gothic Heavy_MSFontService,sans-serif" font-weight="900" font-size="220" transform="matrix(1 0 0 1 1760 1882)">アダプタ</text><g><g><g><path d="M2191.42 687.87 2128.18 782.745C2125.04 787.494 2126.34 793.893 2131.09 797.037 2132.77 798.151 2134.75 798.746 2136.76 798.75L2179.38 798.75 2179.38 1100.66C2172.81 1095.73 2165.68 1091.6 2158.13 1088.37L2113.75 1069.35C2090.98 1059.59 2076.23 1037.19 2076.25 1012.43L2076.25 1001.45C2108.47 990.062 2125.35 954.71 2113.96 922.491 2102.57 890.273 2067.22 873.389 2035 884.78 2002.78 896.171 1985.9 931.523 1997.29 963.741 2003.52 981.362 2017.38 995.223 2035 1001.45L2035 1012.43C2035 1053.68 2059.58 1090.97 2097.49 1107.22L2141.88 1126.23C2161.21 1134.52 2175.01 1152.06 2178.51 1172.81 2134.5 1184.69 2108.46 1230.01 2120.35 1274.02 2132.24 1318.03 2177.55 1344.06 2221.56 1332.17 2265.57 1320.29 2291.61 1274.97 2279.72 1230.96 2271.97 1202.28 2249.4 1179.97 2220.62 1172.56L2220.62 1135.35C2220.62 1113.13 2232.52 1092.62 2251.81 1081.6L2313.02 1046.62C2343.1 1029.44 2362.55 998.315 2364.79 963.75L2395.94 963.75C2401.63 963.75 2406.25 959.133 2406.25 953.438L2406.25 850.313C2406.25 844.617 2401.63 840 2395.94 840L2292.81 840C2287.12 840 2282.5 844.617 2282.5 850.313L2282.5 953.438C2282.5 959.13 2287.12 963.75 2292.81 963.75L2323.38 963.75C2321.26 983.486 2309.8 1001.01 2292.56 1010.86L2231.35 1045.84C2227.64 1047.96 2224.06 1050.3 2220.62 1052.85L2220.62 798.75 2263.24 798.75C2268.93 798.755 2273.55 794.142 2273.56 788.446 2273.56 786.402 2272.95 784.403 2271.82 782.704L2208.58 687.87C2205.42 683.132 2199.02 681.852 2194.28 685.011 2193.15 685.766 2192.17 686.738 2191.42 687.87Z" fill="#FFFFFF"/></g></g></g></g></svg>