<svg width="1820" height="1817" xmlns="http://www.w3.org/2000/svg" xmlns:xlink="http://www.w3.org/1999/xlink" xml:space="preserve" overflow="hidden"><defs><clipPath id="clip0"><rect x="1290" y="329" width="1820" height="1817"/></clipPath></defs><g clip-path="url(#clip0)" transform="translate(-1290 -329)"><rect x="1292" y="329" width="1816" height="1817" fill="#2F5597"/><g><g><g><path d="M2077.9 687.499C2081.15 679.91 2088.62 674.993 2096.88 675L2303.12 675C2311.38 675 2318.8 679.95 2322.1 687.499L2445.85 976.249C2450.33 986.724 2445.46 998.843 2434.99 1003.32 2433.66 1003.88 2432.29 1004.31 2430.88 1004.59L2430.79 1004.59C2424.61 1005.83 2418.42 1006.9 2412.23 1007.93 2348.86 1018.32 2284.83 1024.18 2220.62 1025.46L2220.62 1231.88C2220.62 1243.26 2211.39 1252.5 2200 1252.5 2188.61 1252.5 2179.38 1243.26 2179.38 1231.88L2179.38 1025.42C2115.17 1024.14 2051.14 1018.28 1987.77 1007.89 1981.58 1006.86 1975.39 1005.83 1969.21 1004.59L1969.08 1004.59C1957.91 1002.37 1950.65 991.516 1952.87 980.343 1953.15 978.923 1953.58 977.537 1954.15 976.208L2077.9 687.458ZM2002.41 968.535C2067.77 978.875 2133.83 984.171 2200 984.375 2266.19 984.173 2332.26 978.878 2397.63 968.535L2289.55 716.25 2110.49 716.25 2002.37 968.535Z" fill="#FFFFFF" fill-rule="evenodd"/><path d="M2137.84 1193.68C2139.7 1204.91 2132.11 1215.52 2120.88 1217.4 2091.51 1222.26 2068.08 1229.57 2052.61 1237.73 2046.93 1240.46 2041.77 1244.16 2037.35 1248.66 2036.48 1249.58 2035.76 1250.62 2035.21 1251.76L2035.17 1251.92 2035 1252.34 2035 1252.5 2035.08 1252.83C2035.24 1253.31 2035.47 1253.77 2035.74 1254.19 2037.37 1256.58 2039.39 1258.67 2041.72 1260.38 2048.53 1265.74 2059.67 1271.52 2075.26 1276.67 2106.24 1286.99 2150.33 1293.75 2200 1293.75 2249.67 1293.75 2293.76 1287.03 2324.74 1276.67 2340.33 1271.48 2351.47 1265.74 2358.28 1260.38 2360.62 1258.67 2362.66 1256.58 2364.3 1254.19 2364.56 1253.77 2364.77 1253.31 2364.92 1252.83L2365 1252.5 2365 1252.34C2364.44 1250.97 2363.65 1249.71 2362.65 1248.62 2358.23 1244.13 2353.07 1240.45 2347.39 1237.73 2331.88 1229.57 2308.49 1222.26 2279.12 1217.4 2267.83 1215.87 2259.92 1205.48 2261.45 1194.19 2262.98 1182.9 2273.37 1174.99 2284.66 1176.52 2285.07 1176.58 2285.47 1176.65 2285.88 1176.72 2317.65 1181.96 2345.78 1190.25 2366.61 1201.23 2385.62 1211.25 2406.25 1227.75 2406.25 1252.5 2406.25 1270.07 2395.52 1283.52 2383.81 1292.8 2371.85 1302.21 2355.76 1309.84 2337.77 1315.82 2301.56 1327.91 2252.84 1335 2200 1335 2147.16 1335 2098.44 1327.91 2062.23 1315.82 2044.24 1309.84 2028.15 1302.21 2016.19 1292.8 2004.47 1283.52 1993.75 1270.07 1993.75 1252.5 1993.75 1227.79 2014.38 1211.25 2033.39 1201.23 2054.22 1190.25 2082.35 1181.96 2114.12 1176.72 2125.35 1174.86 2135.96 1182.45 2137.84 1193.68Z" fill="#FFFFFF"/></g></g></g><text fill="#FFFFFF" font-family="Gen Shin Gothic Heavy,Gen Shin Gothic Heavy_MSFontService,sans-serif" font-weight="900" font-size="293" transform="matrix(1 0 0 1 1466.67 1702)">インテリア</text></g></svg>