<svg width="1816" height="1817" xmlns="http://www.w3.org/2000/svg" xmlns:xlink="http://www.w3.org/1999/xlink" xml:space="preserve" overflow="hidden"><defs><clipPath id="clip0"><rect x="1292" y="329" width="1816" height="1817"/></clipPath><clipPath id="clip1"><rect x="1870" y="675" width="660" height="661"/></clipPath><clipPath id="clip2"><rect x="1870" y="675" width="660" height="661"/></clipPath><clipPath id="clip3"><rect x="1870" y="675" width="660" height="661"/></clipPath></defs><g clip-path="url(#clip0)" transform="translate(-1292 -329)"><rect x="1292" y="329" width="1816" height="1817"/><g clip-path="url(#clip1)"><g clip-path="url(#clip2)"><g clip-path="url(#clip3)"><path d="M1874.21 766.699C1856.63 832.839 1895.99 900.707 1962.13 918.286 1983.04 923.842 2005.03 923.83 2025.93 918.251L2287.49 1176.15C2268.17 1241.78 2305.72 1310.64 2371.34 1329.96 2382.68 1333.3 2394.43 1334.99 2406.25 1335 2474.6 1334.91 2529.92 1279.42 2529.83 1211.08 2529.73 1142.73 2474.25 1087.41 2405.9 1087.5 2394.14 1087.52 2382.44 1089.21 2371.15 1092.53L2113.25 830.966C2130.98 764.865 2091.76 696.911 2025.66 679.186 2004.71 673.569 1982.66 673.548 1961.7 679.125L2050.01 767.483 2035 840 1962.52 855.015 1874.21 766.699ZM2425.72 1138.73 2447.5 1139.81 2459.34 1158.16 2477.7 1170 2478.77 1191.82 2488.75 1211.25 2478.77 1230.68 2477.7 1252.5 2459.34 1264.34 2447.5 1282.7 2425.68 1283.77 2406.25 1293.75 2386.82 1283.77 2365 1282.7 2353.16 1264.34 2334.8 1252.5 2333.73 1230.68 2323.75 1211.25 2333.73 1191.82 2334.8 1170 2353.16 1158.16 2365 1139.81 2386.82 1138.73 2406.25 1128.75 2425.68 1138.73Z" fill="#FFFFFF"/></g></g></g><text fill="#FFFFFF" font-family="Gen Shin Gothic Heavy,Gen Shin Gothic Heavy_MSFontService,sans-serif" font-weight="900" font-size="293" transform="matrix(1 0 0 1 1906.67 1702)">工具</text></g></svg>