<svg width="1816" height="1817" xmlns="http://www.w3.org/2000/svg" xmlns:xlink="http://www.w3.org/1999/xlink" xml:space="preserve" overflow="hidden"><defs><clipPath id="clip0"><rect x="1292" y="329" width="1816" height="1817"/></clipPath></defs><g clip-path="url(#clip0)" transform="translate(-1292 -329)"><rect x="1292" y="329" width="1816" height="1817" fill="#C00000"/><g><g><g><path d="M2365 716.25C2387.78 716.25 2406.25 734.719 2406.25 757.5L2406.25 1252.5C2406.25 1275.28 2387.78 1293.75 2365 1293.75L2035 1293.75C2012.22 1293.75 1993.75 1275.28 1993.75 1252.5L1993.75 757.5C1993.75 734.719 2012.22 716.25 2035 716.25L2365 716.25ZM2035 675C1989.44 675 1952.5 711.937 1952.5 757.5L1952.5 1252.5C1952.5 1298.06 1989.44 1335 2035 1335L2365 1335C2410.56 1335 2447.5 1298.06 2447.5 1252.5L2447.5 757.5C2447.5 711.937 2410.56 675 2365 675L2035 675Z" fill="#FFFFFF"/><path d="M2200 870.938C2182.91 870.938 2169.06 857.086 2169.06 840 2169.06 822.914 2182.91 809.063 2200 809.063 2217.09 809.063 2230.94 822.914 2230.94 840 2230.94 857.086 2217.09 870.938 2200 870.938ZM2200 922.5C2245.56 922.5 2282.5 885.564 2282.5 840 2282.5 794.437 2245.56 757.5 2200 757.5 2154.44 757.5 2117.5 794.437 2117.5 840 2117.5 885.564 2154.44 922.5 2200 922.5ZM2200 1046.25C2165.83 1046.25 2138.12 1073.95 2138.12 1108.13 2138.12 1142.3 2165.83 1170 2200 1170 2234.17 1170 2261.88 1142.3 2261.88 1108.13 2261.88 1073.95 2234.17 1046.25 2200 1046.25ZM2055.62 1108.13C2055.62 1028.39 2120.26 963.75 2200 963.75 2279.74 963.75 2344.38 1028.39 2344.38 1108.13 2344.38 1187.86 2279.74 1252.5 2200 1252.5 2120.26 1252.5 2055.62 1187.86 2055.62 1108.13Z" fill="#FFFFFF"/></g></g></g><text fill="#FFFFFF" font-family="Gen Shin Gothic Heavy,Gen Shin Gothic Heavy_MSFontService,sans-serif" font-weight="900" font-size="293" transform="matrix(1 0 0 1 1906.67 1702)">音響</text></g></svg>