<svg width="1816" height="1817" xmlns="http://www.w3.org/2000/svg" xmlns:xlink="http://www.w3.org/1999/xlink" xml:space="preserve" overflow="hidden"><defs><clipPath id="clip0"><rect x="1292" y="329" width="1816" height="1817"/></clipPath><clipPath id="clip1"><rect x="1870" y="675" width="660" height="661"/></clipPath><clipPath id="clip2"><rect x="1870" y="675" width="660" height="661"/></clipPath><clipPath id="clip3"><rect x="1870" y="675" width="660" height="661"/></clipPath></defs><g clip-path="url(#clip0)" transform="translate(-1292 -329)"><rect x="1292" y="329" width="1816" height="1817" fill="#F2F2F2"/><g clip-path="url(#clip1)"><g clip-path="url(#clip2)"><g clip-path="url(#clip3)"><path d="M2200 726.48C2276.6 726.48 2345.45 752.921 2391.81 800.483 2429.96 805.444 2465.95 821.023 2495.68 845.445 2443.66 736.133 2335.92 675 2200 675 2065.94 675 1957.45 736.05 1904.81 845.033 1932.07 822.787 1964.58 807.916 1999.24 801.844 2044.73 752.22 2116.43 726.48 2200 726.48Z"/><path d="M2365 1170C2322.08 1170.05 2280.84 1153.32 2250.08 1123.39L2250 1123.31C2246.44 1120.63 2242.63 1118.33 2238.61 1116.42 2226.52 1110.8 2213.33 1107.97 2200 1108.13 2182.92 1108.13 2169.93 1112.37 2161.43 1116.42 2157.4 1118.32 2153.57 1120.63 2150 1123.31L2149.92 1123.39C2084.54 1186.86 1980.08 1185.32 1916.6 1119.93 1853.13 1054.55 1854.67 950.088 1920.06 886.613 1950.85 856.718 1992.08 839.998 2035 840L2365 840C2456.13 840 2530 913.873 2530 1005 2530 1096.13 2456.13 1170 2365 1170Z"/></g></g></g><text font-family="Gen Shin Gothic Heavy,Gen Shin Gothic Heavy_MSFontService,sans-serif" font-weight="900" font-size="293" transform="matrix(1 0 0 1 2002.06 1702)">VR</text></g></svg>