<svg width="1816" height="1817" xmlns="http://www.w3.org/2000/svg" xmlns:xlink="http://www.w3.org/1999/xlink" xml:space="preserve" overflow="hidden"><defs><clipPath id="clip0"><rect x="1292" y="329" width="1816" height="1817"/></clipPath></defs><g clip-path="url(#clip0)" transform="translate(-1292 -329)"><rect x="1292" y="329" width="1816" height="1817"/><g><g><g><path d="M2014.38 819.375C1989.05 782.91 2011.32 738.443 2049.77 716.25L2200 973.073 2350.23 716.25C2388.68 738.443 2410.95 782.91 2385.62 819.375L2233.41 1030.16 2297.6 1139.93C2348.35 1114.08 2410.45 1134.27 2436.29 1185.02 2462.14 1235.77 2441.96 1297.86 2391.21 1323.71 2340.46 1349.56 2278.36 1329.38 2252.51 1278.62 2233.88 1242.04 2238.72 1197.88 2264.84 1166.21L2200 1076.36 2135.16 1166.16C2171.39 1210.1 2165.15 1275.1 2121.21 1311.33 2077.27 1347.57 2012.28 1341.33 1976.04 1297.39 1939.8 1253.46 1946.04 1188.46 1989.98 1152.22 2021.66 1126.1 2065.82 1121.25 2102.4 1139.89L2166.59 1030.16 2014.38 819.375ZM2117.5 1231.88C2117.5 1197.7 2089.8 1170 2055.62 1170 2021.45 1170 1993.75 1197.7 1993.75 1231.88 1993.75 1266.05 2021.45 1293.75 2055.62 1293.75 2089.8 1293.75 2117.5 1266.05 2117.5 1231.88ZM2406.25 1231.88C2406.25 1197.7 2378.55 1170 2344.38 1170 2310.2 1170 2282.5 1197.7 2282.5 1231.88 2282.5 1266.05 2310.2 1293.75 2344.38 1293.75 2378.55 1293.75 2406.25 1266.05 2406.25 1231.88Z" fill="#FFFFFF"/></g></g></g><text fill="#FFFFFF" font-family="Gen Shin Gothic Heavy,Gen Shin Gothic Heavy_MSFontService,sans-serif" font-weight="900" font-size="293" transform="matrix(1 0 0 1 1906.67 1702)">工作</text></g></svg>