<svg width="104" height="104" fill="dimgray" xmlns="http://www.w3.org/2000/svg" xmlns:xlink="http://www.w3.org/1999/xlink" xml:space="preserve" overflow="hidden"><defs><clipPath id="clip0"><rect x="512" y="308" width="104" height="104"/></clipPath></defs><g clip-path="url(#clip0)" transform="translate(-512 -308)"><path d="M564 412C571.18 412 577 406.18 577 399L551 399C551 406.18 556.82 412 564 412ZM564 320.467 558.82 321.513C546.705 323.982 538.001 334.636 538 347 538 351.082 537.129 361.28 535.016 371.323 533.977 376.309 532.573 381.502 530.707 386L597.293 386C595.427 381.502 594.03 376.315 592.984 371.323 590.871 361.28 590 351.082 590 347 589.996 334.639 581.293 323.988 569.18 321.52L564 320.461ZM604.43 386C605.88 388.905 607.557 391.206 609.5 392.5L518.5 392.5C520.443 391.206 522.12 388.905 523.57 386 529.42 374.3 531.5 352.72 531.5 347 531.5 331.27 542.68 318.14 557.532 315.143 557.174 311.572 559.779 308.385 563.351 308.027 566.923 307.668 570.109 310.273 570.468 313.845 570.511 314.277 570.511 314.712 570.468 315.143 585.614 318.224 596.498 331.543 596.5 347 596.5 352.72 598.58 374.3 604.43 386Z"/></g></svg>