<svg width="357" height="357" xmlns="http://www.w3.org/2000/svg" xmlns:xlink="http://www.w3.org/1999/xlink" xml:space="preserve" overflow="hidden"><defs><clipPath id="clip0"><rect x="2283" y="1059" width="357" height="357"/></clipPath><clipPath id="clip1"><path d="M2610.87 1059 2640 1059 2640 1117.13C2640 1096.27 2631.55 1077.39 2617.88 1063.73ZM2283 1059 2518.09 1059 2511.08 1063.73C2497.41 1077.39 2488.96 1096.27 2488.96 1117.13 2488.96 1158.83 2522.77 1192.65 2564.48 1192.65 2606.19 1192.65 2640 1158.83 2640 1117.13L2640 1416 2283 1416Z" fill-rule="evenodd" clip-rule="evenodd"/></clipPath></defs><g clip-path="url(#clip0)" transform="translate(-2283 -1059)"><g clip-path="url(#clip1)"><path d="M178.5 357C203.146 357 223.125 337.021 223.125 312.375L133.875 312.375C133.875 337.021 153.854 357 178.5 357ZM178.5 42.7954 160.717 46.3877C119.131 54.8609 89.2545 91.4345 89.25 133.875 89.25 147.887 86.2601 182.895 79.0085 217.368 75.4385 234.482 70.619 252.31 64.2153 267.75L292.784 267.75C286.381 252.31 281.584 234.504 277.991 217.368 270.74 182.895 267.75 147.887 267.75 133.875 267.735 91.4429 237.861 54.8815 196.283 46.41L178.5 42.773ZM317.284 267.75C322.259 277.724 328.016 285.622 334.687 290.062L22.3125 290.062C28.9839 285.622 34.7405 277.724 39.7162 267.75 59.7975 227.587 66.9375 153.51 66.9375 133.875 66.9375 79.8787 105.315 34.8075 156.299 24.5214 155.068 12.2602 164.01 1.32278 176.271 0.0920402 188.533-1.1387 199.47 7.80328 200.701 20.0645 200.85 21.5464 200.85 23.0395 200.701 24.5214 252.695 35.0971 290.056 80.8164 290.062 133.875 290.062 153.51 297.202 227.587 317.284 267.75Z" transform="matrix(1 0 0 1 2283 1059)"/></g><path d="M2506 1117C2506 1084.97 2532.19 1059 2564.5 1059 2596.81 1059 2623 1084.97 2623 1117 2623 1149.03 2596.81 1175 2564.5 1175 2532.19 1175 2506 1149.03 2506 1117Z" fill-rule="evenodd"/></g></svg>