<svg width="129" height="206" xmlns="http://www.w3.org/2000/svg" xmlns:xlink="http://www.w3.org/1999/xlink" xml:space="preserve" overflow="hidden"><defs><clipPath id="clip0"><rect x="1271" y="0" width="129" height="206"/></clipPath></defs><g clip-path="url(#clip0)" transform="translate(-1271 0)"><path d="M1349 196.359C1342.02 201.564 1333.81 204.794 1325.21 205.723 1316.6 206.644 1307.91 205.257 1300 201.698L1307.99 183.336C1312.73 185.509 1317.95 186.366 1323.11 185.822L1322.07 175.836C1318.63 176.22 1315.15 175.664 1311.99 174.226L1315.98 165.059C1319.2 166.51 1322.93 166.106 1325.78 164L1331.59 172.107C1333.85 170.443 1335.74 168.311 1337.14 165.85L1345.7 170.822C1345.3 171.542 1344.87 172.235 1344.41 172.912 1342.52 175.733 1340.18 178.203 1337.47 180.215Z" fill="#414042" fill-rule="evenodd"/><path d="M1367.83 170.475C1367.25 172.356 1366.56 174.202 1365.75 176L1356.7 172.008 1347.66 168.043C1349.76 163.309 1350.58 158.115 1350.05 152.973L1343.25 153.663 1340.2 153.981C1340.56 157.404 1340.02 160.861 1338.61 164.01L1329.58 160.031C1330.28 158.458 1330.55 156.727 1330.36 155.017 1330.34 154.812 1330.31 154.609 1330.27 154.409 1330.21 154.002 1330.12 153.6 1329.99 153.207L1329.9 152.903C1329.74 152.457 1329.56 152.023 1329.34 151.605 1329.31 151.533 1329.27 151.464 1329.23 151.398 1329.05 151.06 1328.85 150.732 1328.63 150.417L1328.52 150.279 1328.32 150.016 1325.15 145.72 1320.5 139.407 1318.41 136.561 1312.02 127.859 1280.48 84.9245C1264.39 62.985 1269.28 32.2623 1291.39 16.3036 1296.82 12.3896 1302.98 9.6095 1309.52 8.1321 1329.52 3.64273 1346.2 13.7407 1350.37 16.9041 1353.88 19.9222 1357.14 23.216 1360.11 26.7533 1360.24 26.9194 1360.35 27.0988 1360.36 27.0988L1360.36 27.0988C1362.48 30.1608 1363.78 33.707 1364.14 37.4039 1364.3 42.3557 1362.73 47.2107 1359.68 51.1352 1358.61 52.4105 1357.39 53.5518 1356.05 54.5333 1354.23 55.8504 1352.2 56.8456 1350.05 57.4759 1342.01 59.8558 1333.33 56.9495 1328.39 50.2234 1324.84 46.0972 1318.59 45.6064 1314.43 49.1271 1310.7 52.2843 1309.87 57.6737 1312.46 61.7995L1320.47 72.6853 1320.47 72.6853 1360.5 127.182C1369.68 139.664 1372.39 155.705 1367.83 170.475" fill="#414042" fill-rule="evenodd"/><path d="M1309.67 172.993 1304.32 181.426C1301.25 179.43 1298.57 176.876 1296.43 173.892 1296.05 173.372 1295.69 172.838 1295.36 172.29L1278.68 183C1271.82 172.06 1269.43 158.852 1272.02 146.162 1272.73 142.671 1273.81 139.264 1275.22 136L1293.29 144.096C1291.18 148.884 1290.35 154.146 1290.88 159.359L1300.7 158.291C1300.49 156.236 1300.59 154.161 1301 152.135 1301.28 150.738 1301.72 149.376 1302.29 148.073L1311.31 152.121C1311.02 152.776 1310.81 153.459 1310.67 154.159 1310.46 155.171 1310.41 156.21 1310.51 157.237 1310.69 158.737 1311.2 160.177 1312 161.454L1303.66 166.809C1303.89 167.16 1304.12 167.525 1304.39 167.877 1305.82 169.899 1307.61 171.635 1309.67 172.993" fill="#414042" fill-rule="evenodd"/><path d="M1390 42.5003C1390 44.9856 1387.99 47.0005 1385.5 47.0005 1383.01 47.0005 1381 44.9856 1381 42.5003 1381 40.0151 1383.01 38.0002 1385.5 38.0002 1387.98 37.9924 1389.99 39.9943 1390 42.4718 1390 42.481 1390 42.4907 1390 42.5003" fill="#414042" fill-rule="evenodd"/><path d="M1400 32.5003C1400 35.5378 1397.54 38.0005 1394.5 38.0005 1391.46 38.0005 1389 35.5378 1389 32.5003 1389 29.4629 1391.46 27.0002 1394.5 27.0002 1397.54 27.0002 1400 29.4629 1400 32.5003" fill="#414042" fill-rule="evenodd"/><path d="M1396 7.00005C1396 10.8663 1392.87 14.0005 1389 14.0005 1385.13 14.0005 1382 10.8663 1382 7.00005 1382 3.13414 1385.13 0 1389 0 1389 0 1389.01 0 1389.01 0 1392.87 0 1396 3.12783 1396 6.98595 1396 6.99077 1396 6.9956 1396 7.00005" fill="#414042" fill-rule="evenodd"/></g></svg>