<svg width="2598" height="1949" xmlns="http://www.w3.org/2000/svg" xmlns:xlink="http://www.w3.org/1999/xlink" xml:space="preserve" overflow="hidden"><defs><clipPath id="clip0"><rect x="901" y="263" width="2598" height="1949"/></clipPath></defs><g clip-path="url(#clip0)" transform="translate(-901 -263)"><rect x="901" y="263" width="2598" height="1949" fill="#7F7F7F"/><g><g><g><path d="M2488.75 1205C2488.75 1227.78 2470.28 1246.25 2447.5 1246.25L1952.5 1246.25C1929.72 1246.25 1911.25 1227.78 1911.25 1205L1911.25 957.5C1911.25 934.718 1929.72 916.25 1952.5 916.25L2000.84 916.25C2033.65 916.232 2065.1 903.19 2088.29 879.991L2122.53 845.836C2130.25 838.12 2140.7 833.774 2151.61 833.75L2248.3 833.75C2259.24 833.752 2269.73 838.1 2277.47 845.836L2311.62 879.991C2334.83 903.21 2366.32 916.254 2399.16 916.25L2447.5 916.25C2470.28 916.25 2488.75 934.718 2488.75 957.5L2488.75 1205ZM1952.5 875C1906.94 875 1870 911.936 1870 957.5L1870 1205C1870 1250.56 1906.94 1287.5 1952.5 1287.5L2447.5 1287.5C2493.06 1287.5 2530 1250.56 2530 1205L2530 957.5C2530 911.936 2493.06 875 2447.5 875L2399.16 875C2377.28 874.995 2356.3 866.3 2340.83 850.827L2306.67 816.672C2291.2 801.199 2270.22 792.504 2248.34 792.5L2151.66 792.5C2129.78 792.504 2108.8 801.199 2093.33 816.672L2059.17 850.827C2043.7 866.3 2022.72 874.995 2000.84 875L1952.5 875Z" fill="#FFFFFF"/><path d="M2200 1163.75C2143.05 1163.75 2096.88 1117.58 2096.88 1060.62 2096.88 1003.67 2143.05 957.5 2200 957.5 2256.95 957.5 2303.12 1003.67 2303.12 1060.62 2303.12 1117.58 2256.95 1163.75 2200 1163.75ZM2200 1205C2279.74 1205 2344.38 1140.36 2344.38 1060.62 2344.38 980.889 2279.74 916.25 2200 916.25 2120.26 916.25 2055.62 980.889 2055.62 1060.62 2055.62 1140.36 2120.26 1205 2200 1205ZM1993.75 978.125C1993.75 989.516 1984.52 998.75 1973.12 998.75 1961.73 998.75 1952.5 989.516 1952.5 978.125 1952.5 966.734 1961.73 957.5 1973.12 957.5 1984.52 957.5 1993.75 966.734 1993.75 978.125Z" fill="#FFFFFF"/></g></g></g><path d="M0 0 659.903 659.903" stroke="#FFFFFF" stroke-width="45.8333" stroke-linecap="round" stroke-miterlimit="8" fill="none" fill-rule="evenodd" transform="matrix(-1 0 0 1 2529.9 710)"/><text fill="#FFFFFF" font-family="Arial Black,Arial Black_MSFontService,sans-serif" font-weight="900" font-size="147" transform="matrix(1 0 0 1 1785.96 1692)">NO IMAGE</text></g></svg>