<svg width="3978" height="1839" xmlns="http://www.w3.org/2000/svg" xmlns:xlink="http://www.w3.org/1999/xlink" xml:space="preserve" overflow="hidden"><defs><clipPath id="clip0"><rect x="211" y="318" width="3978" height="1839"/></clipPath></defs><g clip-path="url(#clip0)" transform="translate(-211 -318)"><path d="M703.899 1788.22 755.861 1859.41C776.081 1844.8 792.986 1826.07 805.466 1804.47L881.982 1848.12C878.387 1854.45 874.542 1860.53 870.45 1866.48 853.609 1891.25 832.633 1912.94 808.443 1930.6L911.498 2072.35C849.101 2118.05 775.721 2146.41 698.815 2154.57 621.906 2162.66 544.221 2150.48 473.482 2119.23L544.914 1958C587.258 1977.08 633.894 1984.61 680.088 1979.83L670.788 1892.15C640.012 1895.52 608.896 1890.64 580.629 1878.01L616.346 1797.53C645.1 1810.26 678.462 1806.72 703.899 1788.22ZM249.389 1538.08 410.608 1609.52C391.83 1651.77 384.434 1698.2 389.154 1744.2L476.831 1734.77C474.902 1716.64 475.779 1698.32 479.435 1680.45 481.98 1668.13 485.847 1656.11 490.969 1644.61L571.453 1680.33C568.94 1686.11 567.029 1692.14 565.749 1698.31 563.933 1707.24 563.473 1716.41 564.384 1725.47 565.979 1738.7 570.513 1751.42 577.654 1762.68L503.246 1809.93C505.231 1813.03 507.338 1816.25 509.695 1819.35 522.455 1837.2 538.438 1852.52 556.82 1864.49L509.075 1938.91C481.683 1921.29 457.798 1898.76 438.635 1872.43 435.287 1867.84 432.062 1863.13 429.086 1858.29L280.27 1952.8C219.025 1856.26 197.682 1739.72 220.743 1627.75 227.125 1596.94 236.729 1566.88 249.389 1538.08ZM1236.91 660.163C1258.49 660.095 1276.02 677.53 1276.1 699.105 1276.1 699.187 1276.1 699.27 1276.1 699.353 1276.1 720.997 1258.55 738.543 1236.91 738.543 1215.27 738.543 1197.72 720.997 1197.72 699.353 1197.72 677.71 1215.27 660.163 1236.91 660.163ZM1316.28 557.973C1344.29 557.973 1367 580.683 1367 608.696 1367 636.71 1344.29 659.42 1316.28 659.42 1288.26 659.42 1265.56 636.71 1265.56 608.696 1265.56 580.683 1288.26 557.973 1316.28 557.973ZM619.328 378.717C767.575 369.456 885.378 441.971 917.823 466.822 949.086 493.917 978.117 523.488 1004.63 555.246 1005.75 556.734 1006.74 558.346 1006.87 558.346 1025.73 585.836 1037.3 617.672 1040.47 650.863 1041.96 695.315 1027.93 738.902 1000.79 774.136 991.281 785.586 980.412 795.831 968.42 804.645 952.26 816.465 934.177 825.403 914.97 831.06 843.387 852.425 766.112 826.334 722.129 765.952 690.52 728.905 634.866 724.5 597.822 756.109 564.606 784.452 557.136 832.838 580.258 869.878L651.565 967.603 1008.1 1456.85C1089.82 1568.91 1113.99 1712.92 1073.34 1845.52 1068.19 1862.41 1062.02 1878.98 1054.86 1895.13L974.249 1859.29 893.764 1823.69C912.459 1781.19 919.767 1734.56 914.97 1688.39L854.452 1694.59 827.293 1697.44C830.54 1728.18 825.665 1759.22 813.155 1787.48L732.671 1751.76C738.917 1737.64 741.313 1722.1 739.615 1706.75 739.488 1704.91 739.24 1703.09 738.871 1701.29 738.34 1697.63 737.511 1694.02 736.391 1690.5L735.523 1687.77C734.155 1683.76 732.498 1679.87 730.562 1676.11 730.281 1675.47 729.949 1674.85 729.57 1674.25 727.957 1671.23 726.177 1668.28 724.237 1665.45L723.245 1664.21 721.509 1661.85 693.234 1623.28 651.814 1566.61 633.211 1541.06 576.289 1462.93 295.399 1077.48C152.131 880.518 195.654 604.702 392.612 461.431 440.915 426.293 495.851 401.335 554.09 388.071 576.351 383.033 598.15 380.041 619.328 378.717ZM1265.43 318C1265.47 318 1265.52 318 1265.56 318 1299.11 318 1326.32 345.207 1326.32 378.768 1326.32 378.81 1326.32 378.851 1326.32 378.893 1326.32 412.522 1299.06 439.785 1265.43 439.785 1231.8 439.784 1204.54 412.522 1204.54 378.893 1204.54 345.263 1231.8 318 1265.43 318Z" fill="#414042" fill-rule="evenodd"/><path d="M3856.1 1651.97C3833.77 1651.97 3816.36 1656.99 3803.87 1667.03 3791.38 1677.06 3785.14 1691.2 3785.14 1709.43 3785.14 1728.69 3792.7 1743.64 3807.83 1754.29 3822.96 1764.95 3844.22 1770.27 3871.64 1770.27 3900.67 1770.27 3923.26 1764.54 3939.4 1753.06 3955.55 1741.59 3963.62 1725.51 3963.62 1704.82 3963.62 1687.21 3963.62 1669.59 3963.62 1651.97 3927.78 1651.97 3891.94 1651.97 3856.1 1651.97ZM3104.72 1527.22C3075.49 1527.22 3052.74 1535.72 3036.5 1552.72 3020.26 1569.72 3012.13 1593.59 3012.13 1624.32 3012.13 1640.6 3012.13 1656.89 3012.13 1673.17 3012.13 1703.9 3020.26 1727.87 3036.5 1745.08 3052.74 1762.28 3075.49 1770.89 3104.72 1770.89 3134.17 1770.89 3157.06 1762.28 3173.41 1745.08 3189.75 1727.87 3197.92 1703.9 3197.92 1673.17 3197.92 1656.89 3197.92 1640.6 3197.92 1624.32 3197.92 1593.79 3189.75 1569.98 3173.41 1552.87 3157.06 1535.77 3134.17 1527.22 3104.72 1527.22ZM3876.51 1497.41C3914.07 1497.41 3943.21 1506.99 3963.92 1526.14 3984.63 1545.29 3994.99 1572.28 3994.99 1607.11 3994.99 1670.2 3994.99 1733.3 3994.99 1796.39 3984.53 1796.39 3974.07 1796.39 3963.62 1796.39 3963.62 1783.59 3963.62 1770.78 3963.62 1757.98 3956.1 1771.3 3943.31 1781.74 3925.24 1789.32 3907.17 1796.9 3887.17 1800.69 3865.24 1800.69 3830.11 1800.69 3802.85 1792.7 3783.46 1776.72 3764.07 1760.75 3754.38 1738.32 3754.38 1709.43 3754.38 1681.78 3763.26 1660.32 3781.03 1645.06 3798.79 1629.8 3823.72 1622.16 3855.8 1622.16 3891.74 1622.16 3927.68 1622.16 3963.62 1622.16 3963.62 1617.96 3963.62 1613.77 3963.62 1609.57 3963.62 1583.35 3956 1562.96 3940.77 1548.42 3925.55 1533.87 3904.12 1526.6 3876.51 1526.6 3860.27 1526.6 3844.88 1529.11 3830.37 1534.13 3815.85 1539.15 3803.01 1546.57 3791.84 1556.41 3784.33 1550.98 3776.81 1545.55 3769.3 1540.12 3780.67 1526.6 3795.7 1516.1 3814.38 1508.63 3833.06 1501.15 3853.77 1497.41 3876.51 1497.41ZM3451.94 1497.41C3481.58 1497.41 3505.44 1505.09 3523.51 1520.46 3517.01 1529.37 3510.52 1538.28 3504.02 1547.19 3488.99 1533.87 3468.59 1527.22 3442.8 1527.22 3414.37 1527.22 3392.34 1534.49 3376.71 1549.03 3361.07 1563.58 3353.26 1583.86 3353.26 1609.87 3353.26 1672.05 3353.26 1734.22 3353.26 1796.39 3342.6 1796.39 3331.94 1796.39 3321.28 1796.39 3321.28 1698.16 3321.28 1599.94 3321.28 1501.71 3331.94 1501.71 3342.6 1501.71 3353.26 1501.71 3353.26 1517.08 3353.26 1532.44 3353.26 1547.8 3363 1531.21 3376.3 1518.66 3393.15 1510.16 3410.01 1501.66 3429.6 1497.41 3451.94 1497.41ZM3105.03 1497.41C3131.22 1497.41 3153.61 1502.38 3172.19 1512.31 3190.77 1522.25 3204.93 1536.74 3214.68 1555.79 3224.42 1574.84 3229.29 1597.68 3229.29 1624.32 3229.29 1640.6 3229.29 1656.89 3229.29 1673.17 3229.29 1700.01 3224.42 1722.95 3214.68 1742 3204.93 1761.05 3190.77 1775.6 3172.19 1785.64 3153.61 1795.67 3131.22 1800.69 3105.03 1800.69 3078.84 1800.69 3056.45 1795.67 3037.87 1785.64 3019.29 1775.6 3005.13 1760.95 2995.38 1741.7 2985.64 1722.44 2980.76 1699.29 2980.76 1672.25 2980.76 1656.27 2980.76 1640.29 2980.76 1624.32 2980.76 1597.68 2985.64 1574.84 2995.38 1555.79 3005.13 1536.74 3019.29 1522.25 3037.87 1512.31 3056.45 1502.38 3078.84 1497.41 3105.03 1497.41ZM2235.48 1497.41C2255.38 1497.41 2274.72 1500.12 2293.5 1505.55 2312.28 1510.98 2329.39 1518.82 2344.82 1529.06 2338.52 1536.84 2332.23 1544.63 2325.93 1552.41 2312.33 1543.81 2297.61 1537.15 2281.77 1532.44 2265.93 1527.73 2249.89 1525.37 2233.65 1525.37 2205.22 1525.37 2183.09 1530.6 2167.25 1541.04 2151.42 1551.49 2143.5 1566.24 2143.5 1585.29 2143.5 1598.4 2147.66 1608.18 2155.98 1614.64 2164.31 1621.09 2174.77 1625.29 2187.35 1627.23 2199.94 1629.18 2217.51 1630.67 2240.05 1631.69 2265.43 1632.71 2286.34 1635.63 2302.79 1640.45 2319.23 1645.26 2331.98 1653.3 2341.01 1664.57 2350.05 1675.84 2354.56 1691.51 2354.56 1711.58 2354.56 1730.22 2349.49 1746.25 2339.34 1759.67 2329.18 1773.09 2314.41 1783.28 2295.02 1790.25 2275.63 1797.21 2252.33 1800.69 2225.12 1800.69 2200.55 1800.69 2177.35 1797.21 2155.53 1790.25 2133.7 1783.28 2115.07 1773.55 2099.64 1761.05 2105.63 1753.27 2111.62 1745.49 2117.61 1737.7 2136.9 1749.38 2155.43 1758.13 2173.19 1763.97 2190.96 1769.81 2208.78 1772.73 2226.64 1772.73 2257.51 1772.73 2281.52 1767.35 2298.68 1756.6 2315.83 1745.84 2324.41 1730.84 2324.41 1711.58 2324.41 1697.04 2320 1686.18 2311.16 1679.01 2302.33 1671.84 2291.21 1667.13 2277.81 1664.88 2264.41 1662.62 2245.02 1660.78 2219.64 1659.35 2195.68 1657.91 2176.09 1655.04 2160.86 1650.74 2145.63 1646.44 2133.9 1639.17 2125.68 1628.92 2117.46 1618.68 2113.34 1604.55 2113.34 1586.52 2113.34 1558.25 2124 1536.33 2145.32 1520.76 2166.64 1505.19 2196.7 1497.41 2235.48 1497.41ZM3582.6 1408.91C3593.26 1408.91 3603.92 1408.91 3614.58 1408.91 3614.58 1439.85 3614.58 1470.78 3614.58 1501.71 3636.61 1501.71 3658.64 1501.71 3680.67 1501.71 3680.67 1510.62 3680.67 1519.53 3680.67 1528.44 3658.64 1528.44 3636.61 1528.44 3614.58 1528.44 3614.58 1590.31 3614.58 1652.18 3614.58 1714.04 3614.58 1731.86 3618.08 1745.64 3625.08 1755.37 3632.09 1765.1 3642.29 1769.97 3655.69 1769.97 3664.02 1769.97 3672.34 1769.97 3680.67 1769.97 3680.67 1779.29 3680.67 1788.61 3680.67 1797.93 3670.52 1797.93 3660.36 1797.93 3650.21 1797.93 3626.86 1797.93 3609.76 1790.81 3598.89 1776.57 3588.03 1762.33 3582.6 1741.29 3582.6 1713.43 3582.6 1651.77 3582.6 1590.11 3582.6 1528.44 3571.84 1528.44 3561.07 1528.44 3550.31 1528.44 3550.31 1519.53 3550.31 1510.62 3550.31 1501.71 3561.07 1501.71 3571.84 1501.71 3582.6 1501.71 3582.6 1470.78 3582.6 1439.85 3582.6 1408.91ZM2637.21 1378.19C2637.21 1450.29 2637.21 1522.4 2637.21 1594.51 2682.89 1594.51 2728.58 1594.51 2774.26 1594.51 2795.99 1594.51 2814.77 1590.21 2830.61 1581.6 2846.45 1573 2858.58 1560.61 2867.01 1544.42 2875.43 1528.24 2879.65 1508.98 2879.65 1486.66 2879.65 1464.33 2875.43 1445.02 2867.01 1428.73 2858.58 1412.45 2846.45 1399.95 2830.61 1391.25 2814.77 1382.54 2795.99 1378.19 2774.26 1378.19 2728.58 1378.19 2682.89 1378.19 2637.21 1378.19ZM1818.52 1349.92C1829.69 1349.92 1840.85 1349.92 1852.02 1349.92 1804.3 1466.48 1756.59 1583.04 1708.87 1699.6 1760.55 1699.6 1812.22 1699.6 1863.9 1699.6 1863.9 1644.29 1863.9 1588.98 1863.9 1533.67 1874.15 1533.67 1884.41 1533.67 1894.66 1533.67 1894.66 1588.98 1894.66 1644.29 1894.66 1699.6 1908.67 1699.6 1922.68 1699.6 1936.69 1699.6 1936.69 1709.02 1936.69 1718.44 1936.69 1727.87 1922.68 1727.87 1908.67 1727.87 1894.66 1727.87 1894.66 1750.81 1894.66 1773.75 1894.66 1796.7 1884.41 1796.7 1874.15 1796.7 1863.9 1796.7 1863.9 1773.75 1863.9 1750.81 1863.9 1727.87 1800.85 1727.87 1737.81 1727.87 1674.76 1727.87 1674.76 1719.67 1674.76 1711.48 1674.76 1703.29 1722.68 1585.5 1770.6 1467.71 1818.52 1349.92ZM4098.54 1349.61C4109.61 1349.61 4120.67 1349.61 4131.74 1349.61 4131.74 1470.57 4131.74 1591.54 4131.74 1712.5 4131.74 1730.74 4134.58 1744.61 4140.27 1754.14 4145.95 1763.67 4154.08 1768.43 4164.63 1768.43 4172.76 1768.43 4180.88 1768.43 4189 1768.43 4189 1777.75 4189 1787.07 4189 1796.39 4178.85 1796.39 4168.69 1796.39 4158.54 1796.39 4139.25 1796.39 4124.43 1789.17 4114.08 1774.73 4103.72 1760.29 4098.54 1739.34 4098.54 1711.89 4098.54 1591.13 4098.54 1470.37 4098.54 1349.61ZM2606.14 1349.61C2661.47 1349.61 2716.8 1349.61 2772.13 1349.61 2800.76 1349.61 2825.48 1355.09 2846.3 1366.05 2867.11 1377.01 2883.05 1392.78 2894.11 1413.37 2905.18 1433.96 2910.71 1458.39 2910.71 1486.66 2910.71 1514.72 2905.18 1538.99 2894.11 1559.48 2883.05 1579.97 2867.06 1595.69 2846.14 1606.65 2825.23 1617.61 2800.56 1623.09 2772.13 1623.09 2727.16 1623.09 2682.18 1623.09 2637.21 1623.09 2637.21 1680.85 2637.21 1738.62 2637.21 1796.39 2626.85 1796.39 2616.5 1796.39 2606.14 1796.39 2606.14 1647.46 2606.14 1498.54 2606.14 1349.61ZM2006.44 1349.61C2016.79 1349.61 2027.15 1349.61 2037.51 1349.61 2037.51 1401.85 2037.51 1454.08 2037.51 1506.32 2027.15 1506.32 2016.79 1506.32 2006.44 1506.32 2006.44 1454.08 2006.44 1401.85 2006.44 1349.61ZM1445.11 1345C1471.31 1345 1494.96 1350.07 1516.08 1360.21 1537.2 1370.35 1554.76 1384.95 1568.77 1404 1582.78 1423.05 1592.42 1445.58 1597.7 1471.6 1587.35 1471.6 1576.99 1471.6 1566.64 1471.6 1561.36 1451.52 1552.93 1434.11 1541.36 1419.36 1529.78 1404.61 1515.72 1393.29 1499.18 1385.41 1482.63 1377.52 1464.61 1373.58 1445.11 1373.58 1419.73 1373.58 1397.8 1379.11 1379.33 1390.17 1360.85 1401.23 1346.69 1417.11 1336.84 1437.8 1326.99 1458.49 1322.07 1483.17 1322.07 1511.85 1322.07 1552.72 1322.07 1593.59 1322.07 1634.46 1322.07 1662.93 1326.99 1687.51 1336.84 1708.2 1346.69 1728.89 1360.85 1744.77 1379.33 1755.83 1397.8 1766.89 1419.73 1772.42 1445.11 1772.42 1464.81 1772.42 1482.88 1768.58 1499.33 1760.9 1515.77 1753.22 1529.84 1742 1541.51 1727.25 1553.19 1712.5 1561.56 1694.89 1566.64 1674.4 1576.99 1674.4 1587.35 1674.4 1597.7 1674.4 1592.42 1700.42 1582.73 1722.95 1568.62 1742 1554.51 1761.05 1536.94 1775.65 1515.93 1785.79 1494.91 1795.93 1471.31 1801 1445.11 1801 1413.44 1801 1386.03 1794.34 1362.88 1781.03 1339.73 1767.71 1321.97 1748.56 1309.58 1723.57 1297.19 1698.57 1291 1668.87 1291 1634.46 1291 1593.59 1291 1552.72 1291 1511.85 1291 1477.44 1297.19 1447.68 1309.58 1422.59 1321.97 1397.49 1339.73 1378.29 1362.88 1364.97 1386.03 1351.66 1413.44 1345 1445.11 1345Z" fill="#414042" fill-rule="evenodd"/><path d="M1536.5 1908.57C1505.02 1908.57 1489.27 1926.39 1489.27 1962.04 1489.27 2003.68 1489.27 2045.32 1489.27 2086.96 1489.27 2104.07 1493.11 2117.26 1500.8 2126.53 1508.48 2135.79 1520.38 2140.43 1536.5 2140.43 1552.62 2140.43 1564.52 2135.79 1572.21 2126.53 1579.89 2117.26 1583.73 2104.07 1583.73 2086.96 1583.73 2045.32 1583.73 2003.68 1583.73 1962.04 1583.73 1926.39 1567.99 1908.57 1536.5 1908.57ZM1896.46 1895.39C1902.37 1895.39 1908.28 1895.39 1914.19 1895.39 1888.93 1962.99 1863.68 2030.59 1838.42 2098.19 1865.77 2098.19 1893.12 2098.19 1920.47 2098.19 1920.47 2066.11 1920.47 2034.03 1920.47 2001.96 1925.9 2001.96 1931.33 2001.96 1936.76 2001.96 1936.76 2034.03 1936.76 2066.11 1936.76 2098.19 1944.17 2098.19 1951.58 2098.19 1959 2098.19 1959 2103.66 1959 2109.12 1959 2114.59 1951.58 2114.59 1944.17 2114.59 1936.76 2114.59 1936.76 2127.89 1936.76 2141.2 1936.76 2154.51 1931.33 2154.51 1925.9 2154.51 1920.47 2154.51 1920.47 2141.2 1920.47 2127.89 1920.47 2114.59 1887.11 2114.59 1853.74 2114.59 1820.37 2114.59 1820.37 2109.83 1820.37 2105.08 1820.37 2100.33 1845.73 2032.01 1871.09 1963.7 1896.46 1895.39ZM1712.37 1892.53C1733.43 1892.53 1749.74 1898.42 1761.29 1910.18 1772.84 1921.94 1778.62 1938.57 1778.62 1960.08 1778.62 1960.14 1778.62 1960.2 1778.62 1960.26 1778.62 1969.76 1776.55 1979.83 1772.41 1990.46 1768.28 2001.1 1762.29 2011.58 1754.44 2021.92 1725 2060.53 1695.55 2099.14 1666.11 2137.75 1704.74 2137.75 1743.37 2137.75 1782.01 2137.75 1782.01 2143.28 1782.01 2148.8 1782.01 2154.33 1736.23 2154.33 1690.45 2154.33 1644.67 2154.33 1644.67 2149.87 1644.67 2145.42 1644.67 2140.96 1677.55 2097.24 1710.43 2053.52 1743.32 2009.8 1749.34 2001.84 1753.88 1993.58 1756.94 1985.03 1760 1976.47 1761.53 1968.16 1761.53 1960.08 1761.53 1959.96 1761.53 1959.84 1761.53 1959.72 1761.53 1943.68 1757.29 1931.24 1748.8 1922.39 1740.31 1913.53 1728.27 1909.11 1712.69 1909.11 1697.54 1909.11 1685.26 1913.8 1675.86 1923.19 1666.45 1932.57 1660.73 1945.82 1658.69 1962.93 1658.69 1962.99 1658.69 1963.05 1658.69 1963.11 1653.05 1963.11 1647.41 1963.11 1641.76 1963.11 1641.76 1963.05 1641.76 1962.99 1641.76 1962.93 1644.77 1940.59 1652.46 1923.28 1664.82 1910.98 1677.17 1898.68 1693.03 1892.53 1712.37 1892.53ZM1361.6 1892.53C1382.67 1892.53 1398.98 1898.42 1410.53 1910.18 1422.08 1921.94 1427.86 1938.57 1427.86 1960.08 1427.86 1960.14 1427.86 1960.2 1427.86 1960.26 1427.86 1969.76 1425.79 1979.83 1421.65 1990.46 1417.51 2001.1 1411.52 2011.58 1403.68 2021.92 1374.23 2060.53 1344.79 2099.14 1315.34 2137.75 1353.97 2137.75 1392.61 2137.75 1431.24 2137.75 1431.24 2143.28 1431.24 2148.8 1431.24 2154.33 1385.46 2154.33 1339.68 2154.33 1293.9 2154.33 1293.9 2149.87 1293.9 2145.42 1293.9 2140.96 1326.79 2097.24 1359.67 2053.52 1392.55 2009.8 1398.57 2001.84 1403.11 1993.58 1406.18 1985.03 1409.24 1976.47 1410.77 1968.16 1410.77 1960.08 1410.77 1959.96 1410.77 1959.84 1410.77 1959.72 1410.77 1943.68 1406.52 1931.24 1398.03 1922.39 1389.55 1913.53 1377.51 1909.11 1361.93 1909.11 1346.77 1909.11 1334.5 1913.8 1325.09 1923.19 1315.69 1932.57 1309.97 1945.82 1307.93 1962.93 1307.93 1962.99 1307.93 1963.05 1307.93 1963.11 1302.28 1963.11 1296.64 1963.11 1291 1963.11 1291 1963.05 1291 1962.99 1291 1962.93 1294.01 1940.59 1301.69 1923.28 1314.05 1910.98 1326.41 1898.68 1342.26 1892.53 1361.6 1892.53ZM1536.5 1892C1557.35 1892 1573.18 1898.12 1583.98 1910.36 1594.78 1922.59 1600.18 1939.82 1600.18 1962.04 1600.18 2003.68 1600.18 2045.32 1600.18 2086.96 1600.18 2109.18 1594.75 2126.41 1583.89 2138.64 1573.04 2150.88 1557.24 2157 1536.5 2157 1515.65 2157 1499.83 2150.82 1489.03 2138.47 1478.23 2126.11 1472.83 2108.94 1472.83 2086.96 1472.83 2045.32 1472.83 2003.68 1472.83 1962.04 1472.83 1939.94 1478.26 1922.74 1489.11 1910.45 1499.97 1898.15 1515.76 1892 1536.5 1892Z" fill="#414042" fill-rule="evenodd"/></g></svg>