<svg width="946" height="1390" xmlns="http://www.w3.org/2000/svg" xmlns:xlink="http://www.w3.org/1999/xlink" xml:space="preserve" overflow="hidden"><g transform="translate(-1727 -591)"><g><g><g><g><path d="M4632.61 674.318C4608.64 692.193 4580.45 703.285 4550.92 706.475 4521.35 709.638 4491.51 704.875 4464.34 692.653L4491.78 629.596C4508.06 637.058 4525.98 640.001 4543.7 638.133L4540.13 603.84C4528.32 605.159 4516.37 603.249 4505.52 598.311L4519.22 566.831C4530.28 571.813 4543.09 570.426 4552.87 563.194L4572.83 591.034C4580.59 585.32 4587.08 577.998 4591.88 569.547L4621.28 586.621C4619.91 589.094 4618.43 591.474 4616.85 593.799 4610.36 603.486 4602.32 611.969 4593.02 618.878Z" fill="#414042" fill-rule="evenodd" transform="matrix(1 0 0 1.00222 -2334.75 871)"/><path d="M4697.28 585.43C4695.29 591.889 4692.92 598.229 4690.13 604.403L4659.06 590.694 4628.01 577.078C4635.22 560.821 4638.04 542.984 4636.22 525.326L4612.87 527.695 4602.39 528.788C4603.63 540.543 4601.77 552.414 4596.93 563.228L4565.92 549.564C4568.33 544.162 4569.25 538.218 4568.6 532.345 4568.53 531.641 4568.43 530.944 4568.29 530.257 4568.09 528.86 4567.78 527.479 4567.33 526.13L4567.02 525.086C4566.47 523.554 4565.85 522.064 4565.1 520.628 4565 520.381 4564.86 520.144 4564.72 519.917 4564.1 518.757 4563.42 517.63 4562.66 516.548L4562.28 516.075 4561.6 515.171 4550.71 500.418 4534.74 478.739 4527.56 468.965 4505.62 439.082 4397.31 291.64C4342.05 216.297 4358.85 110.792 4434.77 55.9883 4453.42 42.5472 4474.58 33.0001 4497.03 27.9265 4565.72 12.5095 4623 47.1871 4637.32 58.0505 4649.37 68.415 4660.57 79.7263 4670.77 91.8738 4671.21 92.4442 4671.59 93.0602 4671.62 93.0602L4671.62 93.0602C4678.91 103.575 4683.37 115.754 4684.61 128.449 4685.16 145.454 4679.76 162.127 4669.29 175.604 4665.62 179.983 4661.43 183.903 4656.82 187.273 4650.57 191.796 4643.6 195.214 4636.22 197.379 4608.61 205.551 4578.8 195.571 4561.84 172.473 4549.65 158.303 4528.18 156.617 4513.9 168.708 4501.09 179.55 4498.24 198.058 4507.13 212.226L4534.64 249.609 4534.64 249.609 4672.11 436.757C4703.63 479.621 4712.94 534.708 4697.28 585.43" fill="#414042" fill-rule="evenodd" transform="matrix(1 0 0 1.00222 -2334.75 871)"/><path d="M4497.55 594.077 4479.18 623.037C4468.63 616.182 4459.43 607.411 4452.08 597.164 4450.78 595.378 4449.54 593.545 4448.41 591.663L4391.13 628.442C4367.57 590.873 4359.36 545.515 4368.26 501.936 4370.69 489.948 4374.4 478.248 4379.24 467.039L4441.3 494.841C4434.05 511.284 4431.2 529.354 4433.02 547.256L4466.75 543.589C4466.02 536.531 4466.37 529.406 4467.78 522.448 4468.74 517.651 4470.25 512.974 4472.21 508.499L4503.18 522.4C4502.19 524.649 4501.46 526.995 4500.98 529.399 4500.26 532.874 4500.09 536.442 4500.43 539.969 4501.05 545.12 4502.8 550.065 4505.55 554.451L4476.91 572.84C4477.7 574.046 4478.49 575.299 4479.42 576.508 4484.33 583.452 4490.48 589.413 4497.55 594.077" fill="#414042" fill-rule="evenodd" transform="matrix(1 0 0 1.00222 -2334.75 871)"/><path d="M4773.41 145.951C4773.41 154.485 4766.51 161.405 4757.96 161.405 4749.41 161.405 4742.5 154.485 4742.5 145.951 4742.5 137.416 4749.41 130.497 4757.96 130.497 4766.47 130.47 4773.38 137.345 4773.41 145.853 4773.41 145.884 4773.41 145.918 4773.41 145.951" fill="#414042" fill-rule="evenodd" transform="matrix(1 0 0 1.00222 -2334.75 871)"/><path d="M4807.75 111.61C4807.75 122.041 4799.31 130.498 4788.87 130.498 4778.43 130.498 4769.98 122.041 4769.98 111.61 4769.98 101.179 4778.43 92.7216 4788.87 92.7216 4799.31 92.7216 4807.75 101.179 4807.75 111.61" fill="#414042" fill-rule="evenodd" transform="matrix(1 0 0 1.00222 -2334.75 871)"/><path d="M4794.02 24.0389C4794.02 37.3161 4783.27 48.0792 4769.98 48.0792 4756.69 48.0792 4745.94 37.3161 4745.94 24.0389 4745.94 10.763 4756.69 0 4769.98 0 4769.98 0 4770.01 0 4770.01 0 4783.27 0 4794.02 10.7413 4794.02 23.9905 4794.02 24.0071 4794.02 24.0237 4794.02 24.0389" fill="#414042" fill-rule="evenodd" transform="matrix(1 0 0 1.00222 -2334.75 871)"/></g></g></g></g><text fill="#414042" font-family="Kaisei Tokumin ExtraBold,Kaisei Tokumin ExtraBold_MSFontService,sans-serif" font-weight="800" font-size="110" transform="matrix(1 0 0 1 1980 730)">ようこそ</text><text fill="#414042" font-family="Yu Gothic Medium,Yu Gothic Medium_MSFontService,sans-serif" font-weight="500" font-size="147" transform="matrix(1 0 0 1 1829.61 1852)">C4’s Portal</text></g></svg>