<svg width="721" height="1208" xmlns="http://www.w3.org/2000/svg" xmlns:xlink="http://www.w3.org/1999/xlink" xml:space="preserve" overflow="hidden"><defs><clipPath id="clip0"><rect x="1838" y="642" width="721" height="1208"/></clipPath></defs><g clip-path="url(#clip0)" transform="translate(-1838 -642)"><g><g><g><g><path d="M4632.61 674.318C4608.64 692.193 4580.45 703.285 4550.92 706.475 4521.35 709.638 4491.51 704.875 4464.34 692.653L4491.78 629.596C4508.06 637.058 4525.98 640.001 4543.7 638.133L4540.13 603.84C4528.32 605.159 4516.37 603.249 4505.52 598.311L4519.22 566.831C4530.28 571.813 4543.09 570.426 4552.87 563.194L4572.83 591.034C4580.59 585.32 4587.08 577.998 4591.88 569.547L4621.28 586.621C4619.91 589.094 4618.43 591.474 4616.85 593.799 4610.36 603.486 4602.32 611.969 4593.02 618.878Z" fill="#414042" fill-rule="evenodd" transform="matrix(1 0 0 1.00222 -2334.75 871)"/><path d="M4697.28 585.43C4695.29 591.889 4692.92 598.229 4690.13 604.403L4659.06 590.694 4628.01 577.078C4635.22 560.821 4638.04 542.984 4636.22 525.326L4612.87 527.695 4602.39 528.788C4603.63 540.543 4601.77 552.414 4596.93 563.228L4565.92 549.564C4568.33 544.162 4569.25 538.218 4568.6 532.345 4568.53 531.641 4568.43 530.944 4568.29 530.257 4568.09 528.86 4567.78 527.479 4567.33 526.13L4567.02 525.086C4566.47 523.554 4565.85 522.064 4565.1 520.628 4565 520.381 4564.86 520.144 4564.72 519.917 4564.1 518.757 4563.42 517.63 4562.66 516.548L4562.28 516.075 4561.6 515.171 4550.71 500.418 4534.74 478.739 4527.56 468.965 4505.62 439.082 4397.31 291.64C4342.05 216.297 4358.85 110.792 4434.77 55.9883 4453.42 42.5472 4474.58 33.0001 4497.03 27.9265 4565.72 12.5095 4623 47.1871 4637.32 58.0505 4649.37 68.415 4660.57 79.7263 4670.77 91.8738 4671.21 92.4442 4671.59 93.0602 4671.62 93.0602L4671.62 93.0602C4678.91 103.575 4683.37 115.754 4684.61 128.449 4685.16 145.454 4679.76 162.127 4669.29 175.604 4665.62 179.983 4661.43 183.903 4656.82 187.273 4650.57 191.796 4643.6 195.214 4636.22 197.379 4608.61 205.551 4578.8 195.571 4561.84 172.473 4549.65 158.303 4528.18 156.617 4513.9 168.708 4501.09 179.55 4498.24 198.058 4507.13 212.226L4534.64 249.609 4534.64 249.609 4672.11 436.757C4703.63 479.621 4712.94 534.708 4697.28 585.43" fill="#414042" fill-rule="evenodd" transform="matrix(1 0 0 1.00222 -2334.75 871)"/><path d="M4497.55 594.077 4479.18 623.037C4468.63 616.182 4459.43 607.411 4452.08 597.164 4450.78 595.378 4449.54 593.545 4448.41 591.663L4391.13 628.442C4367.57 590.873 4359.36 545.515 4368.26 501.936 4370.69 489.948 4374.4 478.248 4379.24 467.039L4441.3 494.841C4434.05 511.284 4431.2 529.354 4433.02 547.256L4466.75 543.589C4466.02 536.531 4466.37 529.406 4467.78 522.448 4468.74 517.651 4470.25 512.974 4472.21 508.499L4503.18 522.4C4502.19 524.649 4501.46 526.995 4500.98 529.399 4500.26 532.874 4500.09 536.442 4500.43 539.969 4501.05 545.12 4502.8 550.065 4505.55 554.451L4476.91 572.84C4477.7 574.046 4478.49 575.299 4479.42 576.508 4484.33 583.452 4490.48 589.413 4497.55 594.077" fill="#414042" fill-rule="evenodd" transform="matrix(1 0 0 1.00222 -2334.75 871)"/><path d="M4773.41 145.951C4773.41 154.485 4766.51 161.405 4757.96 161.405 4749.41 161.405 4742.5 154.485 4742.5 145.951 4742.5 137.416 4749.41 130.497 4757.96 130.497 4766.47 130.47 4773.38 137.345 4773.41 145.853 4773.41 145.884 4773.41 145.918 4773.41 145.951" fill="#414042" fill-rule="evenodd" transform="matrix(1 0 0 1.00222 -2334.75 871)"/><path d="M4807.75 111.61C4807.75 122.041 4799.31 130.498 4788.87 130.498 4778.43 130.498 4769.98 122.041 4769.98 111.61 4769.98 101.179 4778.43 92.7216 4788.87 92.7216 4799.31 92.7216 4807.75 101.179 4807.75 111.61" fill="#414042" fill-rule="evenodd" transform="matrix(1 0 0 1.00222 -2334.75 871)"/><path d="M4794.02 24.0389C4794.02 37.3161 4783.27 48.0792 4769.98 48.0792 4756.69 48.0792 4745.94 37.3161 4745.94 24.0389 4745.94 10.763 4756.69 0 4769.98 0 4769.98 0 4770.01 0 4770.01 0 4783.27 0 4794.02 10.7413 4794.02 23.9905 4794.02 24.0071 4794.02 24.0237 4794.02 24.0389" fill="#414042" fill-rule="evenodd" transform="matrix(1 0 0 1.00222 -2334.75 871)"/></g></g></g></g><path d="M2018.86 710.825C2017.4 710.825 2015.66 711.045 2013.65 711.484 2011.63 711.923 2009.89 712.692 2008.43 713.789 2006.97 714.887 2006.23 716.424 2006.23 718.4L2008.38 721.528 2013.15 723.174C2014.91 723.504 2016.26 723.668 2017.21 723.668 2019.04 723.668 2020.93 723.193 2022.87 722.241 2024.81 721.29 2026.45 720.028 2027.81 718.454 2029.16 716.881 2029.84 715.143 2029.84 713.24L2029.84 711.923 2024.46 710.99C2022.26 710.881 2020.4 710.825 2018.86 710.825ZM2233.72 686.127 2233.72 686.127 2233.72 686.127C2234.02 686.127 2234.16 686.274 2234.16 686.567 2234.16 686.64 2234.14 686.695 2234.11 686.731 2234.07 686.768 2234.05 686.823 2234.05 686.896 2233.47 688.872 2233.07 690.958 2232.85 693.153 2232.63 695.348 2232.52 697.507 2232.52 699.629L2234.6 707.697 2240.09 712.581C2242.36 713.752 2244.85 714.558 2247.56 714.997 2250.27 715.436 2252.97 715.655 2255.68 715.655 2258.98 715.655 2262.27 715.381 2265.56 714.832 2268.86 714.283 2272.08 713.643 2275.23 712.911 2275.52 712.764 2275.77 712.691 2275.99 712.691 2276.21 712.691 2276.47 712.691 2276.76 712.691 2278.74 712.691 2280.77 713.094 2282.86 713.899 2284.94 714.704 2286.7 715.875 2288.13 717.411L2288.13 717.412 2288.13 717.412C2289.55 718.949 2290.27 720.851 2290.27 723.12 2290.27 724.949 2289.43 726.541 2287.74 727.895 2286.06 729.249 2284.37 730.109 2282.69 730.474 2280.57 730.913 2278.39 731.206 2276.16 731.352 2273.93 731.499 2271.71 731.572 2269.52 731.572 2265.64 731.572 2261.72 731.481 2257.77 731.298 2253.82 731.115 2249.94 730.657 2246.13 729.926 2241.81 729.047 2238.01 727.73 2234.71 725.974 2231.42 724.217 2228.86 721.784 2227.03 718.674L2227.03 718.674 2227.03 718.674C2225.2 715.564 2224.28 711.63 2224.28 706.874 2224.28 703.215 2225.12 699.592 2226.81 696.006 2228.49 692.421 2230.58 689.347 2233.06 686.786 2233.28 686.42 2233.5 686.201 2233.72 686.127ZM2123.27 669.881 2123.82 670.32 2123.82 670.32 2123.82 670.321C2123.31 671.272 2122.93 672.443 2122.67 673.833 2122.41 675.224 2122.29 676.468 2122.29 677.566 2122.29 677.931 2122.43 678.535 2122.72 679.377L2123.93 680.639 2126.84 680.145C2127.76 679.815 2128.69 679.431 2129.64 678.992 2132.06 677.821 2134.62 676.614 2137.33 675.37 2140.03 674.126 2142.8 673.065 2145.62 672.187 2148.43 671.308 2151.2 670.869 2153.9 670.869 2158.66 670.869 2162.63 671.967 2165.82 674.162L2165.82 674.163 2165.82 674.163C2169 676.358 2171.4 679.304 2173.01 682.999 2174.62 686.695 2175.42 690.738 2175.42 695.129 2175.42 700.031 2174.45 704.807 2172.51 709.453 2170.58 714.101 2167.81 718.107 2164.23 721.473 2158.22 727.035 2151.65 730.968 2144.52 733.273 2137.38 735.579 2129.79 737.134 2121.74 737.939 2121.22 738.012 2120.66 738.067 2120.03 738.103 2119.41 738.14 2118.81 738.158 2118.22 738.158 2118.08 738.158 2117.64 738.14 2116.91 738.103 2116.17 738.067 2115.81 737.865 2115.81 737.5L2115.81 737.499 2115.81 737.499C2115.81 736.987 2115.99 736.658 2116.36 736.511 2116.72 736.365 2117.09 736.219 2117.45 736.072 2119.87 735.34 2122.25 734.535 2124.59 733.657 2126.93 732.779 2129.24 731.828 2131.51 730.803 2136.92 728.315 2141.74 725.04 2145.94 720.979 2150.15 716.917 2153.47 712.216 2155.88 706.874 2158.3 701.531 2159.5 695.823 2159.5 689.75 2159.5 688.432 2159.38 686.823 2159.12 684.92L2157.42 679.926 2153.47 677.785C2150.32 677.785 2147.3 678.773 2144.41 680.749 2141.52 682.725 2139.12 684.847 2137.22 687.116 2136.34 688.067 2135.53 689.055 2134.8 690.079 2134.07 691.104 2133.26 692.128 2132.39 693.153 2130.85 695.129 2128.87 696.116 2126.46 696.116 2122.43 696.116 2119.58 694.799 2117.89 692.165L2117.89 692.165 2117.89 692.164C2116.21 689.53 2115.37 686.42 2115.37 682.834 2115.37 680.419 2116.25 678.023 2118 675.644 2119.76 673.266 2121.52 671.345 2123.27 669.881ZM2231.09 647.928C2231.89 649.391 2233.34 650.635 2235.43 651.66 2237.51 652.684 2239.74 653.453 2242.12 653.965 2244.5 654.477 2246.46 654.733 2248 654.733 2250.05 654.733 2252.06 654.55 2254.04 654.185 2256.01 653.819 2257.99 653.306 2259.96 652.648 2260.77 652.355 2261.57 652.099 2262.38 651.879 2263.18 651.66 2264.03 651.55 2264.9 651.55 2266.08 651.55 2267.48 651.806 2269.13 652.318 2270.78 652.83 2272.39 653.544 2273.96 654.459 2275.54 655.374 2276.85 656.416 2277.92 657.587L2277.92 657.587 2277.92 657.587C2278.98 658.759 2279.51 660.039 2279.51 661.429 2279.51 663.698 2278.72 665.546 2277.15 666.973 2275.57 668.4 2273.69 669.113 2271.49 669.113L2268.64 669.113C2265.93 669.113 2263.08 669.553 2260.07 670.431 2257.07 671.309 2254.15 672.388 2251.29 673.669 2248.44 674.95 2245.84 676.285 2243.5 677.675 2242.54 678.114 2241.74 678.59 2241.08 679.102 2241.01 679.175 2240.86 679.304 2240.64 679.487 2240.42 679.669 2240.24 679.761 2240.09 679.761 2239.73 679.761 2239.54 679.651 2239.54 679.432L2239.54 679.431 2239.54 679.431C2239.54 679.285 2239.84 678.883 2240.42 678.224 2241.01 677.565 2241.34 677.163 2241.41 677.016 2242.07 676.211 2242.74 675.425 2243.44 674.656 2244.14 673.888 2244.85 673.138 2245.58 672.406 2246.53 671.528 2247.48 670.686 2248.44 669.881L2251.29 667.357 2250.36 667.412C2250.03 667.449 2249.68 667.467 2249.31 667.467 2248.8 667.467 2248.25 667.412 2247.67 667.302 2247.08 667.192 2246.5 667.101 2245.91 667.028 2243.2 666.442 2240.62 665.509 2238.17 664.229 2235.72 662.948 2233.76 661.063 2232.3 658.576L2232.3 658.576 2232.3 658.575C2230.91 656.233 2230.21 653.745 2230.21 651.111 2230.21 650.745 2230.25 650.16 2230.32 649.354 2230.39 648.55 2230.65 648.074 2231.09 647.928ZM2372.83 646.281C2374.51 646.281 2376.45 646.519 2378.65 646.994 2380.85 647.47 2382.77 648.312 2384.41 649.519L2384.41 649.519 2384.41 649.52C2386.06 650.727 2386.88 652.392 2386.88 654.514 2386.88 656.709 2386.48 658.246 2385.68 659.125 2384.87 660.003 2383.63 661.063 2381.94 662.308 2380.99 663.04 2380 663.753 2378.98 664.448 2377.95 665.143 2376.97 665.894 2376.01 666.698 2374.62 667.869 2373.27 669.132 2371.95 670.485 2370.63 671.839 2369.35 673.212 2368.11 674.602 2365.55 677.236 2362.99 679.907 2360.42 682.615L2352.74 690.737 2367.45 684.7C2372.5 682.359 2377.26 680.053 2381.72 677.785 2382.6 677.346 2383.43 676.833 2384.19 676.248 2384.96 675.663 2385.86 675.37 2386.88 675.37 2388.13 675.37 2389.76 675.48 2391.77 675.699 2393.78 675.919 2395.79 676.321 2397.81 676.907 2399.82 677.492 2401.52 678.352 2402.91 679.486L2402.91 679.487 2402.91 679.487C2404.3 680.621 2405 682.066 2405 683.823 2405 685.725 2404.16 687.243 2402.47 688.378 2400.79 689.512 2399.11 690.079 2397.42 690.079 2395.96 690.079 2394.5 689.969 2393.03 689.75 2391.57 689.53 2390.1 689.42 2388.64 689.42 2387.91 689.42 2387.2 689.439 2386.5 689.476 2385.8 689.512 2385.09 689.53 2384.36 689.53 2381.43 689.53 2378.69 690.244 2376.12 691.671 2373.56 693.098 2371.31 694.946 2369.37 697.214 2367.43 699.483 2365.84 701.898 2364.6 704.459 2364.01 705.63 2363.5 706.91 2363.06 708.301 2362.62 709.691 2362.4 711.045 2362.4 712.362L2363.83 718.345 2367.61 721.144C2369.19 721.656 2370.93 721.985 2372.83 722.132 2374.73 722.278 2376.67 722.497 2378.65 722.79 2380.48 723.01 2382.31 723.668 2384.14 724.766 2385.97 725.864 2387.51 727.236 2388.75 728.882L2388.75 728.882 2388.75 728.883C2389.99 730.529 2390.62 732.377 2390.62 734.426 2390.62 736.036 2390.07 737.408 2388.97 738.542 2387.87 739.677 2386.55 740.537 2385.02 741.122 2383.48 741.707 2382.02 742 2380.63 742 2378.8 742 2376.58 741.726 2373.98 741.177 2371.39 740.628 2368.86 739.878 2366.41 738.926 2363.96 737.975 2361.96 736.951 2360.42 735.853L2360.42 735.853 2360.42 735.853C2357.28 733.511 2355.12 730.931 2353.95 728.114 2352.78 725.296 2352.19 722.022 2352.19 718.29 2352.19 716.387 2352.59 714.21 2353.4 711.758 2354.2 709.307 2355.23 706.819 2356.47 704.294 2357.72 701.769 2359.05 699.391 2360.48 697.159L2364.38 691.726 2351.04 698.093C2346.68 700.361 2342.49 702.995 2338.47 705.996 2337.95 706.288 2337.46 706.581 2336.98 706.874 2336.51 707.167 2336.05 707.496 2335.61 707.862 2334.66 708.594 2333.85 709.143 2333.2 709.508 2332.54 709.874 2331.59 710.057 2330.34 710.057 2328.88 710.057 2327.78 709.289 2327.05 707.752L2327.05 707.752 2327.05 707.752C2326.32 706.215 2325.95 704.861 2325.95 703.69 2325.95 701.934 2326.26 700.159 2326.88 698.367 2327.5 696.573 2328.73 695.311 2330.56 694.579 2332.46 693.848 2334.28 693.153 2336 692.494 2337.72 691.835 2339.42 690.994 2341.1 689.969 2344.1 687.993 2347.12 685.487 2350.16 682.45 2353.2 679.413 2355.98 676.138 2358.5 672.626 2361.03 669.113 2363.06 665.747 2364.6 662.527 2364.82 662.015 2365.02 661.466 2365.2 660.88 2365.38 660.295 2365.47 659.746 2365.47 659.234 2365.47 659.161 2365.44 658.996 2365.36 658.74L2365.04 658.356 2362.4 659.508C2361.3 660.277 2360.19 661.192 2359.05 662.253 2357.92 663.314 2356.84 664.357 2355.81 665.381 2354.79 666.406 2353.98 667.174 2353.4 667.686 2352.81 668.198 2352.03 668.711 2351.04 669.223 2350.05 669.736 2349.15 669.992 2348.35 669.992 2345.64 669.992 2343.68 669.095 2342.47 667.302L2342.47 667.302 2342.47 667.302C2341.26 665.509 2340.66 663.368 2340.66 660.88 2340.66 659.709 2340.88 658.319 2341.32 656.709 2341.76 655.099 2342.42 653.654 2343.3 652.373 2344.17 651.092 2345.27 650.306 2346.59 650.013L2346.59 650.014 2346.59 650.013C2346.74 650.892 2346.88 651.88 2347.03 652.977L2348.07 655.831 2350.65 657.038C2352.56 657.038 2354.51 656.489 2356.53 655.392 2358.54 654.294 2360.53 653.05 2362.51 651.66 2364.49 650.269 2366.35 649.025 2368.11 647.928 2369.87 646.83 2371.44 646.281 2372.83 646.281ZM2031.27 644.635C2032.88 644.635 2034.69 645.129 2036.7 646.116 2038.71 647.104 2040.47 648.385 2041.97 649.958L2041.97 649.958 2041.97 649.959C2043.47 651.532 2044.22 653.197 2044.22 654.953 2044.22 655.831 2044.06 656.636 2043.73 657.368 2043.4 658.1 2043.05 658.868 2042.69 659.673 2041.81 661.429 2041.26 663.552 2041.04 666.04L2040.49 672.845 2041.59 672.845C2043.34 672.845 2044.97 672.479 2046.47 671.748 2047.97 671.016 2049.38 670.174 2050.7 669.223 2052.02 668.272 2053.32 667.43 2054.6 666.698 2055.88 665.966 2057.21 665.6 2058.61 665.6 2060 665.6 2061.57 665.985 2063.33 666.753 2065.08 667.521 2066.62 668.564 2067.94 669.881L2067.94 669.882 2067.94 669.882C2069.26 671.199 2069.91 672.663 2069.91 674.273 2069.91 675.809 2069.27 677.071 2067.99 678.06 2066.71 679.048 2065.12 679.779 2063.22 680.255 2061.31 680.73 2059.43 681.06 2057.56 681.243 2055.7 681.426 2054.21 681.517 2053.12 681.517 2050.63 681.517 2048.43 681.225 2046.53 680.639 2044.63 680.054 2042.58 679.175 2040.38 678.005 2040.45 682.322 2040.75 686.603 2041.26 690.848L2042.8 703.69 2049.38 705.721C2051.94 706.636 2054.62 707.752 2057.4 709.069 2060.18 710.386 2062.8 711.886 2065.25 713.569 2067.7 715.253 2069.68 717.1 2071.18 719.113L2071.18 719.113 2071.18 719.113C2072.68 721.126 2073.43 723.23 2073.43 725.425 2073.43 727.62 2072.66 729.377 2071.12 730.694 2069.58 732.011 2067.75 732.67 2065.63 732.67 2063.88 732.67 2062.12 732.121 2060.36 731.023 2058.61 729.926 2057.1 728.791 2055.86 727.62 2054.03 725.937 2052.18 724.236 2050.32 722.516 2048.45 720.796 2046.42 719.315 2044.22 718.07 2043.86 721.802 2042.63 724.839 2040.54 727.181 2038.46 729.523 2035.86 731.224 2032.75 732.286 2029.64 733.346 2026.36 733.877 2022.92 733.877 2020.51 733.877 2018.09 733.712 2015.68 733.383 2013.26 733.054 2011.03 732.121 2008.98 730.584 2008.69 730.365 2008.38 730.109 2008.05 729.816 2007.72 729.523 2007.37 729.267 2007 729.047 2005.76 727.95 2004.42 726.98 2003 726.138 2001.57 725.297 2000.38 724.272 1999.43 723.065L1999.43 723.065 1999.43 723.065C1998.48 721.857 1998 720.265 1998 718.29 1998 715.655 1998.88 713.35 2000.63 711.374 2002.39 709.398 2004.59 707.715 2007.22 706.325 2009.86 704.934 2012.57 703.873 2015.35 703.141 2018.13 702.409 2020.58 702.007 2022.7 701.934 2025.12 701.714 2027.5 701.605 2029.84 701.605L2029.84 696.885C2029.84 693.665 2029.82 690.445 2029.78 687.225 2029.75 684.005 2029.66 680.785 2029.51 677.565 2029.44 674.345 2029.36 671.052 2029.29 667.686 2029.22 664.32 2028.81 661.063 2028.08 657.917L2025.61 652.703 2020.07 650.672 2020.07 650.672 2020.07 650.672C2020.65 649.574 2021.61 648.568 2022.92 647.653 2024.24 646.738 2025.67 646.007 2027.2 645.458 2028.74 644.909 2030.1 644.635 2031.27 644.635ZM2131.62 642C2133.15 643.903 2135 645.238 2137.16 646.007 2139.32 646.775 2141.61 647.214 2144.02 647.324 2146.44 647.433 2148.74 647.489 2150.94 647.489 2152.77 647.489 2154.49 648.056 2156.1 649.19L2156.1 649.19 2156.1 649.19C2157.71 650.325 2159.03 651.733 2160.05 653.416 2161.08 655.1 2161.59 656.856 2161.59 658.685 2161.59 660.588 2160.9 662.106 2159.5 663.241 2158.11 664.375 2156.47 664.942 2154.56 664.942 2153.03 664.942 2151.49 664.722 2149.95 664.283 2148.71 663.918 2147.43 663.661 2146.11 663.515 2144.79 663.369 2143.47 663.296 2142.16 663.296 2139.96 663.296 2137.75 663.479 2135.51 663.844 2133.28 664.21 2131.18 664.905 2129.2 665.93L2129.2 665.93 2129.2 665.93 2128.65 665.271C2130.04 663.954 2131.51 662.728 2133.04 661.594L2137.66 658.356 2131.84 653.087 2131.84 653.087 2131.84 653.087C2130.45 651.257 2129.75 648.769 2129.75 645.622 2129.75 645.11 2129.95 644.452 2130.35 643.647 2130.76 642.842 2131.18 642.293 2131.62 642Z" fill="#414042" fill-rule="evenodd"/><path d="M2508.19 1808.77C2501.26 1808.87 2494.26 1809.64 2487.19 1811.08 2481.92 1812.21 2477.97 1814.11 2475.34 1816.79L2471.38 1827.11 2475.64 1837.44C2478.19 1839.6 2481.61 1840.69 2485.89 1840.69 2494.74 1840.69 2502.18 1835.7 2508.19 1825.74ZM2303.34 1780.03C2296.51 1780.03 2291.31 1782.99 2287.75 1788.92 2286.19 1791.51 2285.02 1794.59 2284.23 1798.14L2283.06 1810.22 2284.58 1823.84C2285.59 1827.75 2287.1 1831.03 2289.12 1833.68 2292.59 1838.25 2297.28 1840.54 2303.2 1840.54 2309.98 1840.54 2315.13 1837.6 2318.64 1831.73 2320.23 1829.11 2321.42 1826 2322.21 1822.42L2323.4 1810.22 2321.89 1796.66C2320.88 1792.77 2319.36 1789.52 2317.34 1786.89 2313.88 1782.32 2309.21 1780.03 2303.34 1780.03ZM2394.06 1770.72 2394.06 1770.72 2394.06 1770.72 2393.19 1782.42C2388 1782.42 2383.28 1784.54 2379.05 1788.77 2375.1 1792.62 2372.07 1797.89 2369.96 1804.58L2369.96 1847.91 2369.96 1847.91 2357.98 1847.91 2357.98 1847.91 2357.98 1772.38 2357.98 1772.38 2369.52 1772.38 2369.52 1772.38 2369.52 1791.59C2374.91 1777.68 2383.09 1770.72 2394.06 1770.72ZM2303.34 1770.72C2313.59 1770.72 2321.7 1774.69 2327.66 1782.63 2333 1789.71 2335.67 1798.86 2335.67 1810.07L2335.67 1810.07 2335.67 1810.07C2335.67 1823.02 2332.26 1833.15 2325.42 1840.47 2319.6 1846.73 2312.19 1849.86 2303.2 1849.86 2292.8 1849.86 2284.63 1845.86 2278.66 1837.87 2273.42 1830.84 2270.79 1821.72 2270.79 1810.5L2270.79 1810.5 2270.79 1810.5C2270.79 1797.56 2274.21 1787.42 2281.04 1780.11 2286.86 1773.85 2294.3 1770.72 2303.34 1770.72ZM2492.53 1770.58C2510.76 1770.58 2519.88 1778.95 2519.88 1795.7L2519.88 1795.7 2519.88 1823.36C2519.88 1832.21 2520.36 1840.4 2521.32 1847.91L2521.32 1847.91 2521.32 1847.91 2510.43 1847.91C2509.75 1844.87 2509.2 1840.88 2508.77 1835.92 2502.51 1845.11 2493.9 1849.71 2482.93 1849.71 2475.19 1849.71 2469.22 1847.42 2465.03 1842.85 2461.47 1838.95 2459.69 1833.9 2459.69 1827.69L2459.69 1827.69 2459.69 1827.69C2459.69 1814.07 2467.97 1805.79 2484.52 1802.85 2490.77 1801.74 2498.66 1800.95 2508.19 1800.47L2508.19 1796.5C2508.19 1790.05 2506.77 1785.55 2503.93 1782.99 2501.48 1780.73 2497.58 1779.6 2492.24 1779.6 2482.57 1779.6 2476.46 1784.39 2473.91 1793.97L2462.51 1790.43 2462.51 1790.43 2462.51 1790.43C2466.65 1777.19 2476.65 1770.58 2492.53 1770.58ZM2085.62 1770.58C2099.72 1770.58 2108.98 1776.64 2113.4 1788.77L2113.4 1788.77 2113.4 1788.77 2101.86 1792.45C2099.31 1783.79 2093.85 1779.46 2085.47 1779.46 2080.33 1779.46 2076.38 1780.59 2073.64 1782.85L2070.1 1790.29 2073.71 1798.81C2075.92 1800.49 2079.89 1802.03 2085.62 1803.43L2091.68 1804.87C2100.87 1807.09 2107.2 1810.02 2110.66 1813.68 2113.74 1816.91 2115.28 1821.43 2115.28 1827.26L2115.28 1827.26 2115.28 1827.26C2115.28 1834.38 2112.56 1839.96 2107.12 1844.01 2101.98 1847.81 2095 1849.71 2086.2 1849.71 2070.7 1849.71 2060.7 1843.6 2056.17 1831.37L2056.17 1831.37 2056.17 1831.37 2067.87 1827.18C2070.8 1836.28 2077.01 1840.83 2086.48 1840.83 2092.69 1840.83 2097.26 1839.43 2100.2 1836.64L2103.59 1828.41 2099.98 1819.31C2097.81 1817.68 2093.51 1816.02 2087.06 1814.33L2081 1813.03C2072.15 1810.77 2066.11 1807.81 2062.89 1804.15 2060.19 1801.02 2058.84 1796.69 2058.84 1791.15L2058.84 1791.15 2058.84 1791.15C2058.84 1784.65 2061.37 1779.53 2066.42 1775.77 2071.19 1772.31 2077.58 1770.58 2085.62 1770.58ZM1975.78 1749.42C1970.2 1762.22 1966.76 1769.97 1965.46 1772.67L1945.83 1813.03 1977.73 1813.03 1977.73 1775.49 1977.73 1775.49C1977.73 1773.2 1977.78 1769.88 1977.87 1765.54L1978.31 1749.42ZM2193.89 1749.28 2193.89 1790.21 2215.76 1790.21C2224.44 1790.21 2230.96 1788.48 2235.3 1785L2241.81 1769.35 2235.52 1754.29C2231.32 1750.95 2225.02 1749.28 2216.63 1749.28ZM2428.41 1746.24 2428.41 1746.24 2428.41 1772.38 2446.46 1772.38 2446.46 1772.38 2446.46 1781.69 2446.46 1781.7 2428.41 1781.7 2428.41 1828.27C2428.41 1836.45 2431.9 1840.54 2438.88 1840.54 2442.49 1840.54 2445.64 1840.23 2448.33 1839.6L2448.33 1839.6 2448.33 1839.6 2447.76 1848.92C2444.34 1849.45 2440.44 1849.71 2436.06 1849.71 2423.07 1849.71 2416.58 1843.29 2416.58 1830.43L2416.58 1830.43 2416.58 1781.7 2404.31 1781.7 2404.31 1781.69 2404.31 1772.38 2404.31 1772.38 2416.58 1772.38 2416.58 1748.84 2416.58 1748.84ZM1971.96 1739.67 1988.84 1739.67 1988.84 1739.67 1988.84 1813.03 2003.78 1813.03 2003.78 1813.03 2003.78 1822.78 2003.78 1822.78 1988.84 1822.78 1988.84 1847.91 1988.84 1847.91 1977.73 1847.91 1977.73 1847.91 1977.73 1822.78 1934.86 1822.78 1934.86 1822.78 1934.86 1813.61 1934.86 1813.61ZM2181.19 1738.95 2217.42 1738.95C2242.53 1738.95 2255.09 1749.03 2255.09 1769.2L2255.09 1769.2 2255.09 1769.2C2255.09 1779.55 2251.34 1787.47 2243.83 1792.96 2237.15 1797.82 2227.98 1800.25 2216.34 1800.25L2193.89 1800.25 2193.89 1847.91 2193.89 1847.91 2181.19 1847.91 2181.19 1847.91 2181.19 1738.95ZM2022.12 1738.95 2038.21 1738.95 2038.21 1738.95 2038.21 1754.62 2038.21 1754.62 2029.77 1774.62 2023.13 1774.62 2023.13 1774.62 2023.13 1774.62 2030.56 1754.62 2022.12 1754.62 2022.12 1754.62 2022.12 1738.95ZM2547.02 1737 2559 1737 2559 1737 2559 1847.91 2559 1847.91 2547.02 1847.91 2547.02 1847.91 2547.02 1737ZM1883.54 1737C1894.36 1737 1903.31 1740.13 1910.38 1746.39 1916.4 1751.73 1920.56 1759 1922.87 1768.19L1922.87 1768.19 1922.87 1768.19 1910.09 1771.66C1906.44 1755.63 1897.63 1747.61 1883.68 1747.61 1873.43 1747.61 1865.4 1752.04 1859.58 1760.9 1856.91 1764.94 1854.91 1769.68 1853.57 1775.11L1851.57 1793.46 1854.15 1813.99C1855.87 1819.92 1858.45 1824.94 1861.89 1829.06 1867.61 1835.9 1874.88 1839.31 1883.68 1839.31 1898.45 1839.31 1907.67 1831.18 1911.32 1814.91L1923.59 1819.1 1923.59 1819.1 1923.59 1819.1C1917.67 1839.7 1904.32 1850 1883.54 1850 1869.15 1850 1857.77 1844.42 1849.4 1833.25 1841.8 1823.19 1838 1810 1838 1793.68L1838 1793.68 1838 1793.68C1838 1774.91 1842.88 1760.35 1852.65 1750 1860.83 1741.33 1871.12 1737 1883.54 1737Z" fill="#414042" fill-rule="evenodd"/></g></svg>